<mxfile host="app.diagrams.net" agent="Mozilla/5.0 (Windows NT 10.0; Win64; x64) AppleWebKit/537.36 (KHTML, like Gecko) Chrome/131.0.0.0 Safari/537.36 Edg/131.0.0.0" version="24.8.9">
  <diagram name="Страница — 1" id="eZxW3xiSxonGvQpfkF9G">
    <mxGraphModel dx="3247" dy="1278" grid="1" gridSize="10" guides="1" tooltips="1" connect="1" arrows="1" fold="1" page="0" pageScale="1" pageWidth="827" pageHeight="1169" math="0" shadow="0">
      <root>
        <mxCell id="0" />
        <mxCell id="1" parent="0" />
        <mxCell id="y4AhJnp8irNAr9wBN3HV-5" value="S" style="ellipse;whiteSpace=wrap;html=1;aspect=fixed;" vertex="1" parent="1">
          <mxGeometry y="60" width="30" height="30" as="geometry" />
        </mxCell>
        <mxCell id="y4AhJnp8irNAr9wBN3HV-7" value="i" style="ellipse;whiteSpace=wrap;html=1;aspect=fixed;" vertex="1" parent="1">
          <mxGeometry x="-400" y="130" width="30" height="30" as="geometry" />
        </mxCell>
        <mxCell id="y4AhJnp8irNAr9wBN3HV-8" value="{" style="ellipse;whiteSpace=wrap;html=1;aspect=fixed;" vertex="1" parent="1">
          <mxGeometry x="-240" y="130" width="30" height="30" as="geometry" />
        </mxCell>
        <mxCell id="y4AhJnp8irNAr9wBN3HV-9" value="N" style="ellipse;whiteSpace=wrap;html=1;aspect=fixed;" vertex="1" parent="1">
          <mxGeometry x="-200" y="130" width="30" height="30" as="geometry" />
        </mxCell>
        <mxCell id="y4AhJnp8irNAr9wBN3HV-10" value="r" style="ellipse;whiteSpace=wrap;html=1;aspect=fixed;" vertex="1" parent="1">
          <mxGeometry x="-160" y="130" width="30" height="30" as="geometry" />
        </mxCell>
        <mxCell id="y4AhJnp8irNAr9wBN3HV-11" value="E" style="ellipse;whiteSpace=wrap;html=1;aspect=fixed;" vertex="1" parent="1">
          <mxGeometry x="-120" y="130" width="30" height="30" as="geometry" />
        </mxCell>
        <mxCell id="y4AhJnp8irNAr9wBN3HV-12" value=";" style="ellipse;whiteSpace=wrap;html=1;aspect=fixed;" vertex="1" parent="1">
          <mxGeometry x="-80" y="130" width="30" height="30" as="geometry" />
        </mxCell>
        <mxCell id="y4AhJnp8irNAr9wBN3HV-13" value="}" style="ellipse;whiteSpace=wrap;html=1;aspect=fixed;" vertex="1" parent="1">
          <mxGeometry x="-40" y="130" width="30" height="30" as="geometry" />
        </mxCell>
        <mxCell id="y4AhJnp8irNAr9wBN3HV-14" value="" style="endArrow=none;html=1;rounded=0;exitX=0.5;exitY=0;exitDx=0;exitDy=0;" edge="1" parent="1" source="y4AhJnp8irNAr9wBN3HV-7">
          <mxGeometry width="50" height="50" relative="1" as="geometry">
            <mxPoint x="-40" y="140" as="sourcePoint" />
            <mxPoint x="10" y="90" as="targetPoint" />
          </mxGeometry>
        </mxCell>
        <mxCell id="y4AhJnp8irNAr9wBN3HV-15" value="" style="endArrow=none;html=1;rounded=0;exitX=0.5;exitY=0;exitDx=0;exitDy=0;entryX=0.5;entryY=1;entryDx=0;entryDy=0;" edge="1" parent="1" source="y4AhJnp8irNAr9wBN3HV-8" target="y4AhJnp8irNAr9wBN3HV-5">
          <mxGeometry width="50" height="50" relative="1" as="geometry">
            <mxPoint x="-255" y="140" as="sourcePoint" />
            <mxPoint x="20" y="100" as="targetPoint" />
          </mxGeometry>
        </mxCell>
        <mxCell id="y4AhJnp8irNAr9wBN3HV-16" value="" style="endArrow=none;html=1;rounded=0;exitX=0.5;exitY=0;exitDx=0;exitDy=0;entryX=0.5;entryY=1;entryDx=0;entryDy=0;" edge="1" parent="1" source="y4AhJnp8irNAr9wBN3HV-9" target="y4AhJnp8irNAr9wBN3HV-5">
          <mxGeometry width="50" height="50" relative="1" as="geometry">
            <mxPoint x="-245" y="150" as="sourcePoint" />
            <mxPoint x="10" y="90" as="targetPoint" />
          </mxGeometry>
        </mxCell>
        <mxCell id="y4AhJnp8irNAr9wBN3HV-17" value="" style="endArrow=none;html=1;rounded=0;exitX=0.5;exitY=0;exitDx=0;exitDy=0;entryX=0.5;entryY=1;entryDx=0;entryDy=0;" edge="1" parent="1" source="y4AhJnp8irNAr9wBN3HV-10" target="y4AhJnp8irNAr9wBN3HV-5">
          <mxGeometry width="50" height="50" relative="1" as="geometry">
            <mxPoint x="-235" y="160" as="sourcePoint" />
            <mxPoint x="40" y="120" as="targetPoint" />
          </mxGeometry>
        </mxCell>
        <mxCell id="y4AhJnp8irNAr9wBN3HV-18" value="" style="endArrow=none;html=1;rounded=0;exitX=0.5;exitY=0;exitDx=0;exitDy=0;entryX=0.5;entryY=1;entryDx=0;entryDy=0;" edge="1" parent="1" source="y4AhJnp8irNAr9wBN3HV-11" target="y4AhJnp8irNAr9wBN3HV-5">
          <mxGeometry width="50" height="50" relative="1" as="geometry">
            <mxPoint x="-225" y="170" as="sourcePoint" />
            <mxPoint x="50" y="130" as="targetPoint" />
          </mxGeometry>
        </mxCell>
        <mxCell id="y4AhJnp8irNAr9wBN3HV-19" value="" style="endArrow=none;html=1;rounded=0;exitX=0.5;exitY=0;exitDx=0;exitDy=0;entryX=0.5;entryY=1;entryDx=0;entryDy=0;" edge="1" parent="1" source="y4AhJnp8irNAr9wBN3HV-12" target="y4AhJnp8irNAr9wBN3HV-5">
          <mxGeometry width="50" height="50" relative="1" as="geometry">
            <mxPoint x="-215" y="180" as="sourcePoint" />
            <mxPoint x="60" y="140" as="targetPoint" />
          </mxGeometry>
        </mxCell>
        <mxCell id="y4AhJnp8irNAr9wBN3HV-20" value="" style="endArrow=none;html=1;rounded=0;exitX=0.5;exitY=0;exitDx=0;exitDy=0;entryX=0.5;entryY=1;entryDx=0;entryDy=0;" edge="1" parent="1" source="y4AhJnp8irNAr9wBN3HV-13" target="y4AhJnp8irNAr9wBN3HV-5">
          <mxGeometry width="50" height="50" relative="1" as="geometry">
            <mxPoint x="-205" y="190" as="sourcePoint" />
            <mxPoint x="70" y="150" as="targetPoint" />
          </mxGeometry>
        </mxCell>
        <mxCell id="y4AhJnp8irNAr9wBN3HV-23" value="m" style="ellipse;whiteSpace=wrap;html=1;aspect=fixed;" vertex="1" parent="1">
          <mxGeometry x="30" y="180" width="30" height="30" as="geometry" />
        </mxCell>
        <mxCell id="y4AhJnp8irNAr9wBN3HV-24" value="{" style="ellipse;whiteSpace=wrap;html=1;aspect=fixed;" vertex="1" parent="1">
          <mxGeometry x="70" y="180" width="30" height="30" as="geometry" />
        </mxCell>
        <mxCell id="y4AhJnp8irNAr9wBN3HV-25" value="N" style="ellipse;whiteSpace=wrap;html=1;aspect=fixed;" vertex="1" parent="1">
          <mxGeometry x="110" y="180" width="30" height="30" as="geometry" />
        </mxCell>
        <mxCell id="y4AhJnp8irNAr9wBN3HV-26" value="r" style="ellipse;whiteSpace=wrap;html=1;aspect=fixed;" vertex="1" parent="1">
          <mxGeometry x="150" y="180" width="30" height="30" as="geometry" />
        </mxCell>
        <mxCell id="y4AhJnp8irNAr9wBN3HV-27" value="E" style="ellipse;whiteSpace=wrap;html=1;aspect=fixed;" vertex="1" parent="1">
          <mxGeometry x="190" y="180" width="30" height="30" as="geometry" />
        </mxCell>
        <mxCell id="y4AhJnp8irNAr9wBN3HV-28" value=";" style="ellipse;whiteSpace=wrap;html=1;aspect=fixed;" vertex="1" parent="1">
          <mxGeometry x="230" y="180" width="30" height="30" as="geometry" />
        </mxCell>
        <mxCell id="y4AhJnp8irNAr9wBN3HV-29" value="}" style="ellipse;whiteSpace=wrap;html=1;aspect=fixed;" vertex="1" parent="1">
          <mxGeometry x="270" y="180" width="30" height="30" as="geometry" />
        </mxCell>
        <mxCell id="y4AhJnp8irNAr9wBN3HV-30" value="f" style="ellipse;whiteSpace=wrap;html=1;aspect=fixed;" vertex="1" parent="1">
          <mxGeometry x="-440" y="130" width="30" height="30" as="geometry" />
        </mxCell>
        <mxCell id="y4AhJnp8irNAr9wBN3HV-31" value="t" style="ellipse;whiteSpace=wrap;html=1;aspect=fixed;" vertex="1" parent="1">
          <mxGeometry x="-480" y="130" width="30" height="30" as="geometry" />
        </mxCell>
        <mxCell id="y4AhJnp8irNAr9wBN3HV-32" value="d" style="ellipse;whiteSpace=wrap;html=1;aspect=fixed;" vertex="1" parent="1">
          <mxGeometry x="-520" y="130" width="30" height="30" as="geometry" />
        </mxCell>
        <mxCell id="y4AhJnp8irNAr9wBN3HV-33" value="S" style="ellipse;whiteSpace=wrap;html=1;aspect=fixed;" vertex="1" parent="1">
          <mxGeometry y="130" width="30" height="30" as="geometry" />
        </mxCell>
        <mxCell id="y4AhJnp8irNAr9wBN3HV-34" value="" style="endArrow=none;html=1;rounded=0;exitX=0.5;exitY=0;exitDx=0;exitDy=0;entryX=0.5;entryY=1;entryDx=0;entryDy=0;" edge="1" parent="1" source="y4AhJnp8irNAr9wBN3HV-32" target="y4AhJnp8irNAr9wBN3HV-5">
          <mxGeometry width="50" height="50" relative="1" as="geometry">
            <mxPoint x="-220" y="240" as="sourcePoint" />
            <mxPoint x="-170" y="190" as="targetPoint" />
          </mxGeometry>
        </mxCell>
        <mxCell id="y4AhJnp8irNAr9wBN3HV-36" value="" style="endArrow=none;html=1;rounded=0;exitX=0.5;exitY=0;exitDx=0;exitDy=0;entryX=0.5;entryY=1;entryDx=0;entryDy=0;" edge="1" parent="1" source="y4AhJnp8irNAr9wBN3HV-31" target="y4AhJnp8irNAr9wBN3HV-5">
          <mxGeometry width="50" height="50" relative="1" as="geometry">
            <mxPoint x="-220" y="240" as="sourcePoint" />
            <mxPoint x="-170" y="190" as="targetPoint" />
          </mxGeometry>
        </mxCell>
        <mxCell id="y4AhJnp8irNAr9wBN3HV-37" value="" style="endArrow=none;html=1;rounded=0;exitX=0.5;exitY=0;exitDx=0;exitDy=0;entryX=0.5;entryY=1;entryDx=0;entryDy=0;" edge="1" parent="1" source="y4AhJnp8irNAr9wBN3HV-30" target="y4AhJnp8irNAr9wBN3HV-5">
          <mxGeometry width="50" height="50" relative="1" as="geometry">
            <mxPoint x="-220" y="240" as="sourcePoint" />
            <mxPoint x="-170" y="190" as="targetPoint" />
          </mxGeometry>
        </mxCell>
        <mxCell id="y4AhJnp8irNAr9wBN3HV-38" value="t" style="ellipse;whiteSpace=wrap;html=1;aspect=fixed;" vertex="1" parent="1">
          <mxGeometry x="-350" y="180" width="30" height="30" as="geometry" />
        </mxCell>
        <mxCell id="y4AhJnp8irNAr9wBN3HV-39" value=")" style="ellipse;whiteSpace=wrap;html=1;aspect=fixed;" vertex="1" parent="1">
          <mxGeometry x="-280" y="130" width="30" height="30" as="geometry" />
        </mxCell>
        <mxCell id="y4AhJnp8irNAr9wBN3HV-40" value="F" style="ellipse;whiteSpace=wrap;html=1;aspect=fixed;" vertex="1" parent="1">
          <mxGeometry x="-320" y="130" width="30" height="30" as="geometry" />
        </mxCell>
        <mxCell id="y4AhJnp8irNAr9wBN3HV-41" value="(" style="ellipse;whiteSpace=wrap;html=1;aspect=fixed;" vertex="1" parent="1">
          <mxGeometry x="-360" y="130" width="30" height="30" as="geometry" />
        </mxCell>
        <mxCell id="y4AhJnp8irNAr9wBN3HV-42" value="" style="endArrow=none;html=1;rounded=0;exitX=0.5;exitY=0;exitDx=0;exitDy=0;entryX=0.5;entryY=1;entryDx=0;entryDy=0;" edge="1" parent="1" source="y4AhJnp8irNAr9wBN3HV-41" target="y4AhJnp8irNAr9wBN3HV-5">
          <mxGeometry width="50" height="50" relative="1" as="geometry">
            <mxPoint x="-220" y="240" as="sourcePoint" />
            <mxPoint x="-170" y="190" as="targetPoint" />
          </mxGeometry>
        </mxCell>
        <mxCell id="y4AhJnp8irNAr9wBN3HV-43" value="" style="endArrow=none;html=1;rounded=0;exitX=0.5;exitY=0;exitDx=0;exitDy=0;entryX=0.5;entryY=1;entryDx=0;entryDy=0;" edge="1" parent="1" source="y4AhJnp8irNAr9wBN3HV-40" target="y4AhJnp8irNAr9wBN3HV-5">
          <mxGeometry width="50" height="50" relative="1" as="geometry">
            <mxPoint x="-220" y="240" as="sourcePoint" />
            <mxPoint x="-90" y="250" as="targetPoint" />
          </mxGeometry>
        </mxCell>
        <mxCell id="y4AhJnp8irNAr9wBN3HV-44" value="" style="endArrow=none;html=1;rounded=0;entryX=0.5;entryY=0;entryDx=0;entryDy=0;exitX=0.5;exitY=1;exitDx=0;exitDy=0;" edge="1" parent="1" source="y4AhJnp8irNAr9wBN3HV-5" target="y4AhJnp8irNAr9wBN3HV-39">
          <mxGeometry width="50" height="50" relative="1" as="geometry">
            <mxPoint x="-220" y="240" as="sourcePoint" />
            <mxPoint x="-170" y="190" as="targetPoint" />
          </mxGeometry>
        </mxCell>
        <mxCell id="y4AhJnp8irNAr9wBN3HV-45" value="i" style="ellipse;whiteSpace=wrap;html=1;aspect=fixed;" vertex="1" parent="1">
          <mxGeometry x="-310" y="180" width="30" height="30" as="geometry" />
        </mxCell>
        <mxCell id="y4AhJnp8irNAr9wBN3HV-46" value="," style="ellipse;whiteSpace=wrap;html=1;aspect=fixed;" vertex="1" parent="1">
          <mxGeometry x="-270" y="180" width="30" height="30" as="geometry" />
        </mxCell>
        <mxCell id="y4AhJnp8irNAr9wBN3HV-47" value="F" style="ellipse;whiteSpace=wrap;html=1;aspect=fixed;" vertex="1" parent="1">
          <mxGeometry x="-230" y="180" width="30" height="30" as="geometry" />
        </mxCell>
        <mxCell id="y4AhJnp8irNAr9wBN3HV-48" value="t" style="ellipse;whiteSpace=wrap;html=1;aspect=fixed;" vertex="1" parent="1">
          <mxGeometry x="-290" y="230" width="30" height="30" as="geometry" />
        </mxCell>
        <mxCell id="y4AhJnp8irNAr9wBN3HV-49" value="i" style="ellipse;whiteSpace=wrap;html=1;aspect=fixed;" vertex="1" parent="1">
          <mxGeometry x="-250" y="230" width="30" height="30" as="geometry" />
        </mxCell>
        <mxCell id="y4AhJnp8irNAr9wBN3HV-50" value="" style="endArrow=none;html=1;rounded=0;entryX=0.5;entryY=1;entryDx=0;entryDy=0;exitX=0.5;exitY=0;exitDx=0;exitDy=0;" edge="1" parent="1" source="y4AhJnp8irNAr9wBN3HV-38" target="y4AhJnp8irNAr9wBN3HV-40">
          <mxGeometry width="50" height="50" relative="1" as="geometry">
            <mxPoint x="-220" y="240" as="sourcePoint" />
            <mxPoint x="-170" y="190" as="targetPoint" />
          </mxGeometry>
        </mxCell>
        <mxCell id="y4AhJnp8irNAr9wBN3HV-51" value="" style="endArrow=none;html=1;rounded=0;exitX=0.5;exitY=1;exitDx=0;exitDy=0;entryX=0.5;entryY=0;entryDx=0;entryDy=0;" edge="1" parent="1" source="y4AhJnp8irNAr9wBN3HV-40" target="y4AhJnp8irNAr9wBN3HV-45">
          <mxGeometry width="50" height="50" relative="1" as="geometry">
            <mxPoint x="-180" y="260" as="sourcePoint" />
            <mxPoint x="-130" y="210" as="targetPoint" />
          </mxGeometry>
        </mxCell>
        <mxCell id="y4AhJnp8irNAr9wBN3HV-52" value="" style="endArrow=none;html=1;rounded=0;exitX=0.5;exitY=0;exitDx=0;exitDy=0;entryX=0.5;entryY=1;entryDx=0;entryDy=0;" edge="1" parent="1" source="y4AhJnp8irNAr9wBN3HV-46" target="y4AhJnp8irNAr9wBN3HV-40">
          <mxGeometry width="50" height="50" relative="1" as="geometry">
            <mxPoint x="-180" y="260" as="sourcePoint" />
            <mxPoint x="-130" y="210" as="targetPoint" />
          </mxGeometry>
        </mxCell>
        <mxCell id="y4AhJnp8irNAr9wBN3HV-53" value="" style="endArrow=none;html=1;rounded=0;exitX=0.5;exitY=0;exitDx=0;exitDy=0;entryX=0.5;entryY=1;entryDx=0;entryDy=0;" edge="1" parent="1" source="y4AhJnp8irNAr9wBN3HV-47" target="y4AhJnp8irNAr9wBN3HV-40">
          <mxGeometry width="50" height="50" relative="1" as="geometry">
            <mxPoint x="-180" y="260" as="sourcePoint" />
            <mxPoint x="-130" y="210" as="targetPoint" />
          </mxGeometry>
        </mxCell>
        <mxCell id="y4AhJnp8irNAr9wBN3HV-54" value="" style="endArrow=none;html=1;rounded=0;entryX=0.5;entryY=1;entryDx=0;entryDy=0;exitX=0.5;exitY=0;exitDx=0;exitDy=0;" edge="1" parent="1" source="y4AhJnp8irNAr9wBN3HV-48" target="y4AhJnp8irNAr9wBN3HV-47">
          <mxGeometry width="50" height="50" relative="1" as="geometry">
            <mxPoint x="-180" y="260" as="sourcePoint" />
            <mxPoint x="-130" y="210" as="targetPoint" />
          </mxGeometry>
        </mxCell>
        <mxCell id="y4AhJnp8irNAr9wBN3HV-55" value="" style="endArrow=none;html=1;rounded=0;entryX=0.5;entryY=1;entryDx=0;entryDy=0;exitX=0.5;exitY=0;exitDx=0;exitDy=0;" edge="1" parent="1" source="y4AhJnp8irNAr9wBN3HV-49" target="y4AhJnp8irNAr9wBN3HV-47">
          <mxGeometry width="50" height="50" relative="1" as="geometry">
            <mxPoint x="-180" y="260" as="sourcePoint" />
            <mxPoint x="-130" y="210" as="targetPoint" />
          </mxGeometry>
        </mxCell>
        <mxCell id="y4AhJnp8irNAr9wBN3HV-56" value="" style="endArrow=none;html=1;rounded=0;exitX=0.5;exitY=1;exitDx=0;exitDy=0;entryX=0.5;entryY=0;entryDx=0;entryDy=0;" edge="1" parent="1" source="y4AhJnp8irNAr9wBN3HV-5" target="y4AhJnp8irNAr9wBN3HV-33">
          <mxGeometry width="50" height="50" relative="1" as="geometry">
            <mxPoint x="-180" y="260" as="sourcePoint" />
            <mxPoint x="-130" y="210" as="targetPoint" />
          </mxGeometry>
        </mxCell>
        <mxCell id="y4AhJnp8irNAr9wBN3HV-57" value="d" style="ellipse;whiteSpace=wrap;html=1;aspect=fixed;" vertex="1" parent="1">
          <mxGeometry x="-210" y="240" width="30" height="30" as="geometry" />
        </mxCell>
        <mxCell id="y4AhJnp8irNAr9wBN3HV-58" value="t" style="ellipse;whiteSpace=wrap;html=1;aspect=fixed;" vertex="1" parent="1">
          <mxGeometry x="-170" y="240" width="30" height="30" as="geometry" />
        </mxCell>
        <mxCell id="y4AhJnp8irNAr9wBN3HV-59" value="i" style="ellipse;whiteSpace=wrap;html=1;aspect=fixed;" vertex="1" parent="1">
          <mxGeometry x="-130" y="240" width="30" height="30" as="geometry" />
        </mxCell>
        <mxCell id="y4AhJnp8irNAr9wBN3HV-60" value=";" style="ellipse;whiteSpace=wrap;html=1;aspect=fixed;" vertex="1" parent="1">
          <mxGeometry x="-90" y="240" width="30" height="30" as="geometry" />
        </mxCell>
        <mxCell id="y4AhJnp8irNAr9wBN3HV-61" value="N" style="ellipse;whiteSpace=wrap;html=1;aspect=fixed;" vertex="1" parent="1">
          <mxGeometry x="-50" y="240" width="30" height="30" as="geometry" />
        </mxCell>
        <mxCell id="y4AhJnp8irNAr9wBN3HV-62" value="" style="endArrow=none;html=1;rounded=0;entryX=0.5;entryY=1;entryDx=0;entryDy=0;exitX=0.5;exitY=0;exitDx=0;exitDy=0;" edge="1" parent="1" source="y4AhJnp8irNAr9wBN3HV-57" target="y4AhJnp8irNAr9wBN3HV-9">
          <mxGeometry width="50" height="50" relative="1" as="geometry">
            <mxPoint x="-40" y="310" as="sourcePoint" />
            <mxPoint x="10" y="260" as="targetPoint" />
          </mxGeometry>
        </mxCell>
        <mxCell id="y4AhJnp8irNAr9wBN3HV-63" value="" style="endArrow=none;html=1;rounded=0;entryX=0.5;entryY=1;entryDx=0;entryDy=0;exitX=0.5;exitY=0;exitDx=0;exitDy=0;" edge="1" parent="1" source="y4AhJnp8irNAr9wBN3HV-58" target="y4AhJnp8irNAr9wBN3HV-9">
          <mxGeometry width="50" height="50" relative="1" as="geometry">
            <mxPoint x="-40" y="310" as="sourcePoint" />
            <mxPoint x="10" y="260" as="targetPoint" />
          </mxGeometry>
        </mxCell>
        <mxCell id="y4AhJnp8irNAr9wBN3HV-64" value="" style="endArrow=none;html=1;rounded=0;entryX=0.5;entryY=1;entryDx=0;entryDy=0;exitX=0.5;exitY=0;exitDx=0;exitDy=0;" edge="1" parent="1" source="y4AhJnp8irNAr9wBN3HV-59" target="y4AhJnp8irNAr9wBN3HV-9">
          <mxGeometry width="50" height="50" relative="1" as="geometry">
            <mxPoint x="-40" y="310" as="sourcePoint" />
            <mxPoint x="10" y="260" as="targetPoint" />
          </mxGeometry>
        </mxCell>
        <mxCell id="y4AhJnp8irNAr9wBN3HV-65" value="" style="endArrow=none;html=1;rounded=0;entryX=0.5;entryY=1;entryDx=0;entryDy=0;exitX=0.5;exitY=0;exitDx=0;exitDy=0;" edge="1" parent="1" source="y4AhJnp8irNAr9wBN3HV-60" target="y4AhJnp8irNAr9wBN3HV-9">
          <mxGeometry width="50" height="50" relative="1" as="geometry">
            <mxPoint x="-40" y="310" as="sourcePoint" />
            <mxPoint x="10" y="260" as="targetPoint" />
          </mxGeometry>
        </mxCell>
        <mxCell id="y4AhJnp8irNAr9wBN3HV-66" value="" style="endArrow=none;html=1;rounded=0;entryX=0.5;entryY=1;entryDx=0;entryDy=0;exitX=0.5;exitY=0;exitDx=0;exitDy=0;" edge="1" parent="1" source="y4AhJnp8irNAr9wBN3HV-61" target="y4AhJnp8irNAr9wBN3HV-9">
          <mxGeometry width="50" height="50" relative="1" as="geometry">
            <mxPoint x="-40" y="310" as="sourcePoint" />
            <mxPoint x="10" y="260" as="targetPoint" />
          </mxGeometry>
        </mxCell>
        <mxCell id="y4AhJnp8irNAr9wBN3HV-67" value="i" style="ellipse;whiteSpace=wrap;html=1;aspect=fixed;" vertex="1" parent="1">
          <mxGeometry x="-180" y="290" width="30" height="30" as="geometry" />
        </mxCell>
        <mxCell id="y4AhJnp8irNAr9wBN3HV-68" value="v" style="ellipse;whiteSpace=wrap;html=1;aspect=fixed;" vertex="1" parent="1">
          <mxGeometry x="-140" y="290" width="30" height="30" as="geometry" />
        </mxCell>
        <mxCell id="y4AhJnp8irNAr9wBN3HV-69" value="E" style="ellipse;whiteSpace=wrap;html=1;aspect=fixed;" vertex="1" parent="1">
          <mxGeometry x="-100" y="290" width="30" height="30" as="geometry" />
        </mxCell>
        <mxCell id="y4AhJnp8irNAr9wBN3HV-72" value="" style="endArrow=none;html=1;rounded=0;entryX=0.5;entryY=1;entryDx=0;entryDy=0;exitX=0.5;exitY=0;exitDx=0;exitDy=0;" edge="1" parent="1" source="y4AhJnp8irNAr9wBN3HV-67" target="y4AhJnp8irNAr9wBN3HV-61">
          <mxGeometry width="50" height="50" relative="1" as="geometry">
            <mxPoint x="-60" y="340" as="sourcePoint" />
            <mxPoint x="-10" y="290" as="targetPoint" />
          </mxGeometry>
        </mxCell>
        <mxCell id="y4AhJnp8irNAr9wBN3HV-77" value="" style="endArrow=none;html=1;rounded=0;entryX=0.5;entryY=1;entryDx=0;entryDy=0;exitX=0.5;exitY=0;exitDx=0;exitDy=0;" edge="1" parent="1" source="y4AhJnp8irNAr9wBN3HV-68" target="y4AhJnp8irNAr9wBN3HV-61">
          <mxGeometry width="50" height="50" relative="1" as="geometry">
            <mxPoint x="-140" y="340" as="sourcePoint" />
            <mxPoint x="-90" y="290" as="targetPoint" />
          </mxGeometry>
        </mxCell>
        <mxCell id="y4AhJnp8irNAr9wBN3HV-78" value="" style="endArrow=none;html=1;rounded=0;entryX=0.5;entryY=1;entryDx=0;entryDy=0;exitX=0.5;exitY=0;exitDx=0;exitDy=0;" edge="1" parent="1" source="y4AhJnp8irNAr9wBN3HV-69" target="y4AhJnp8irNAr9wBN3HV-61">
          <mxGeometry width="50" height="50" relative="1" as="geometry">
            <mxPoint x="-140" y="340" as="sourcePoint" />
            <mxPoint x="-90" y="290" as="targetPoint" />
          </mxGeometry>
        </mxCell>
        <mxCell id="y4AhJnp8irNAr9wBN3HV-79" value="i" style="ellipse;whiteSpace=wrap;html=1;aspect=fixed;" vertex="1" parent="1">
          <mxGeometry x="-80" y="180" width="30" height="30" as="geometry" />
        </mxCell>
        <mxCell id="y4AhJnp8irNAr9wBN3HV-80" value="" style="endArrow=none;html=1;rounded=0;entryX=0.5;entryY=0;entryDx=0;entryDy=0;exitX=0.5;exitY=1;exitDx=0;exitDy=0;" edge="1" parent="1" source="y4AhJnp8irNAr9wBN3HV-11" target="y4AhJnp8irNAr9wBN3HV-79">
          <mxGeometry width="50" height="50" relative="1" as="geometry">
            <mxPoint x="-30" y="310" as="sourcePoint" />
            <mxPoint x="20" y="260" as="targetPoint" />
          </mxGeometry>
        </mxCell>
        <mxCell id="y4AhJnp8irNAr9wBN3HV-81" value="i" style="ellipse;whiteSpace=wrap;html=1;aspect=fixed;" vertex="1" parent="1">
          <mxGeometry x="-180" y="340" width="30" height="30" as="geometry" />
        </mxCell>
        <mxCell id="y4AhJnp8irNAr9wBN3HV-82" value="M" style="ellipse;whiteSpace=wrap;html=1;aspect=fixed;" vertex="1" parent="1">
          <mxGeometry x="-140" y="340" width="30" height="30" as="geometry" />
        </mxCell>
        <mxCell id="y4AhJnp8irNAr9wBN3HV-83" value="E" style="ellipse;whiteSpace=wrap;html=1;aspect=fixed;" vertex="1" parent="1">
          <mxGeometry x="-100" y="340" width="30" height="30" as="geometry" />
        </mxCell>
        <mxCell id="y4AhJnp8irNAr9wBN3HV-84" value="v" style="ellipse;whiteSpace=wrap;html=1;aspect=fixed;" vertex="1" parent="1">
          <mxGeometry x="-160" y="390" width="30" height="30" as="geometry" />
        </mxCell>
        <mxCell id="y4AhJnp8irNAr9wBN3HV-85" value="E" style="ellipse;whiteSpace=wrap;html=1;aspect=fixed;" vertex="1" parent="1">
          <mxGeometry x="-120" y="390" width="30" height="30" as="geometry" />
        </mxCell>
        <mxCell id="y4AhJnp8irNAr9wBN3HV-86" value="i" style="ellipse;whiteSpace=wrap;html=1;aspect=fixed;" vertex="1" parent="1">
          <mxGeometry x="-150" y="430" width="30" height="30" as="geometry" />
        </mxCell>
        <mxCell id="y4AhJnp8irNAr9wBN3HV-87" value="" style="endArrow=none;html=1;rounded=0;entryX=0.5;entryY=0;entryDx=0;entryDy=0;exitX=0.5;exitY=1;exitDx=0;exitDy=0;" edge="1" parent="1" source="y4AhJnp8irNAr9wBN3HV-85" target="y4AhJnp8irNAr9wBN3HV-86">
          <mxGeometry width="50" height="50" relative="1" as="geometry">
            <mxPoint x="-30" y="490" as="sourcePoint" />
            <mxPoint x="20" y="440" as="targetPoint" />
          </mxGeometry>
        </mxCell>
        <mxCell id="y4AhJnp8irNAr9wBN3HV-88" value="" style="endArrow=none;html=1;rounded=0;entryX=0.5;entryY=1;entryDx=0;entryDy=0;exitX=0.5;exitY=0;exitDx=0;exitDy=0;" edge="1" parent="1" source="y4AhJnp8irNAr9wBN3HV-84" target="y4AhJnp8irNAr9wBN3HV-83">
          <mxGeometry width="50" height="50" relative="1" as="geometry">
            <mxPoint x="-30" y="490" as="sourcePoint" />
            <mxPoint x="20" y="440" as="targetPoint" />
          </mxGeometry>
        </mxCell>
        <mxCell id="y4AhJnp8irNAr9wBN3HV-89" value="" style="endArrow=none;html=1;rounded=0;entryX=0.5;entryY=1;entryDx=0;entryDy=0;exitX=0.5;exitY=0;exitDx=0;exitDy=0;" edge="1" parent="1" source="y4AhJnp8irNAr9wBN3HV-85" target="y4AhJnp8irNAr9wBN3HV-83">
          <mxGeometry width="50" height="50" relative="1" as="geometry">
            <mxPoint x="-30" y="490" as="sourcePoint" />
            <mxPoint x="20" y="440" as="targetPoint" />
          </mxGeometry>
        </mxCell>
        <mxCell id="y4AhJnp8irNAr9wBN3HV-90" value="" style="endArrow=none;html=1;rounded=0;entryX=0.5;entryY=1;entryDx=0;entryDy=0;exitX=0.5;exitY=0;exitDx=0;exitDy=0;" edge="1" parent="1" source="y4AhJnp8irNAr9wBN3HV-83" target="y4AhJnp8irNAr9wBN3HV-69">
          <mxGeometry width="50" height="50" relative="1" as="geometry">
            <mxPoint x="-30" y="490" as="sourcePoint" />
            <mxPoint x="20" y="440" as="targetPoint" />
          </mxGeometry>
        </mxCell>
        <mxCell id="y4AhJnp8irNAr9wBN3HV-91" value="" style="endArrow=none;html=1;rounded=0;entryX=0.5;entryY=1;entryDx=0;entryDy=0;exitX=0.5;exitY=0;exitDx=0;exitDy=0;" edge="1" parent="1" source="y4AhJnp8irNAr9wBN3HV-82" target="y4AhJnp8irNAr9wBN3HV-69">
          <mxGeometry width="50" height="50" relative="1" as="geometry">
            <mxPoint x="-30" y="490" as="sourcePoint" />
            <mxPoint x="20" y="440" as="targetPoint" />
          </mxGeometry>
        </mxCell>
        <mxCell id="y4AhJnp8irNAr9wBN3HV-93" value="" style="endArrow=none;html=1;rounded=0;entryX=0.5;entryY=1;entryDx=0;entryDy=0;exitX=0.5;exitY=0;exitDx=0;exitDy=0;" edge="1" parent="1" source="y4AhJnp8irNAr9wBN3HV-81" target="y4AhJnp8irNAr9wBN3HV-69">
          <mxGeometry width="50" height="50" relative="1" as="geometry">
            <mxPoint x="-30" y="490" as="sourcePoint" />
            <mxPoint x="20" y="440" as="targetPoint" />
          </mxGeometry>
        </mxCell>
        <mxCell id="y4AhJnp8irNAr9wBN3HV-95" value="" style="endArrow=none;html=1;rounded=0;entryX=0.5;entryY=1;entryDx=0;entryDy=0;exitX=0.5;exitY=0;exitDx=0;exitDy=0;" edge="1" parent="1" source="y4AhJnp8irNAr9wBN3HV-23" target="y4AhJnp8irNAr9wBN3HV-33">
          <mxGeometry width="50" height="50" relative="1" as="geometry">
            <mxPoint x="-30" y="280" as="sourcePoint" />
            <mxPoint x="20" y="230" as="targetPoint" />
          </mxGeometry>
        </mxCell>
        <mxCell id="y4AhJnp8irNAr9wBN3HV-96" value="" style="endArrow=none;html=1;rounded=0;entryX=0.5;entryY=1;entryDx=0;entryDy=0;exitX=0.5;exitY=0;exitDx=0;exitDy=0;" edge="1" parent="1" source="y4AhJnp8irNAr9wBN3HV-24" target="y4AhJnp8irNAr9wBN3HV-33">
          <mxGeometry width="50" height="50" relative="1" as="geometry">
            <mxPoint x="-30" y="280" as="sourcePoint" />
            <mxPoint x="20" y="230" as="targetPoint" />
          </mxGeometry>
        </mxCell>
        <mxCell id="y4AhJnp8irNAr9wBN3HV-97" value="" style="endArrow=none;html=1;rounded=0;entryX=0.5;entryY=1;entryDx=0;entryDy=0;exitX=0.5;exitY=0;exitDx=0;exitDy=0;" edge="1" parent="1" source="y4AhJnp8irNAr9wBN3HV-25" target="y4AhJnp8irNAr9wBN3HV-33">
          <mxGeometry width="50" height="50" relative="1" as="geometry">
            <mxPoint x="-30" y="370" as="sourcePoint" />
            <mxPoint x="20" y="320" as="targetPoint" />
          </mxGeometry>
        </mxCell>
        <mxCell id="y4AhJnp8irNAr9wBN3HV-98" value="" style="endArrow=none;html=1;rounded=0;entryX=0.5;entryY=1;entryDx=0;entryDy=0;exitX=0.5;exitY=0;exitDx=0;exitDy=0;" edge="1" parent="1" source="y4AhJnp8irNAr9wBN3HV-26" target="y4AhJnp8irNAr9wBN3HV-33">
          <mxGeometry width="50" height="50" relative="1" as="geometry">
            <mxPoint x="-30" y="370" as="sourcePoint" />
            <mxPoint x="20" y="320" as="targetPoint" />
          </mxGeometry>
        </mxCell>
        <mxCell id="y4AhJnp8irNAr9wBN3HV-99" value="" style="endArrow=none;html=1;rounded=0;entryX=0.5;entryY=1;entryDx=0;entryDy=0;exitX=0.5;exitY=0;exitDx=0;exitDy=0;" edge="1" parent="1" source="y4AhJnp8irNAr9wBN3HV-27" target="y4AhJnp8irNAr9wBN3HV-33">
          <mxGeometry width="50" height="50" relative="1" as="geometry">
            <mxPoint x="-30" y="370" as="sourcePoint" />
            <mxPoint x="20" y="320" as="targetPoint" />
          </mxGeometry>
        </mxCell>
        <mxCell id="y4AhJnp8irNAr9wBN3HV-100" value="" style="endArrow=none;html=1;rounded=0;entryX=0.5;entryY=1;entryDx=0;entryDy=0;exitX=0.5;exitY=0;exitDx=0;exitDy=0;" edge="1" parent="1" source="y4AhJnp8irNAr9wBN3HV-28" target="y4AhJnp8irNAr9wBN3HV-33">
          <mxGeometry width="50" height="50" relative="1" as="geometry">
            <mxPoint x="-30" y="370" as="sourcePoint" />
            <mxPoint x="20" y="320" as="targetPoint" />
          </mxGeometry>
        </mxCell>
        <mxCell id="y4AhJnp8irNAr9wBN3HV-101" value="" style="endArrow=none;html=1;rounded=0;entryX=0.5;entryY=1;entryDx=0;entryDy=0;exitX=0.5;exitY=0;exitDx=0;exitDy=0;" edge="1" parent="1" source="y4AhJnp8irNAr9wBN3HV-29" target="y4AhJnp8irNAr9wBN3HV-33">
          <mxGeometry width="50" height="50" relative="1" as="geometry">
            <mxPoint x="-30" y="370" as="sourcePoint" />
            <mxPoint x="20" y="320" as="targetPoint" />
          </mxGeometry>
        </mxCell>
        <mxCell id="y4AhJnp8irNAr9wBN3HV-102" value="i" style="ellipse;whiteSpace=wrap;html=1;aspect=fixed;" vertex="1" parent="1">
          <mxGeometry x="220" y="220" width="30" height="30" as="geometry" />
        </mxCell>
        <mxCell id="y4AhJnp8irNAr9wBN3HV-103" value="" style="endArrow=none;html=1;rounded=0;entryX=0.5;entryY=1;entryDx=0;entryDy=0;exitX=0.5;exitY=0;exitDx=0;exitDy=0;" edge="1" parent="1" source="y4AhJnp8irNAr9wBN3HV-102" target="y4AhJnp8irNAr9wBN3HV-27">
          <mxGeometry width="50" height="50" relative="1" as="geometry">
            <mxPoint x="-30" y="370" as="sourcePoint" />
            <mxPoint x="20" y="320" as="targetPoint" />
          </mxGeometry>
        </mxCell>
        <mxCell id="y4AhJnp8irNAr9wBN3HV-104" value="i" style="ellipse;whiteSpace=wrap;html=1;aspect=fixed;" vertex="1" parent="1">
          <mxGeometry x="90" y="290" width="30" height="30" as="geometry" />
        </mxCell>
        <mxCell id="y4AhJnp8irNAr9wBN3HV-105" value=";" style="ellipse;whiteSpace=wrap;html=1;aspect=fixed;" vertex="1" parent="1">
          <mxGeometry x="250" y="290" width="30" height="30" as="geometry" />
        </mxCell>
        <mxCell id="y4AhJnp8irNAr9wBN3HV-106" value="N" style="ellipse;whiteSpace=wrap;html=1;aspect=fixed;" vertex="1" parent="1">
          <mxGeometry x="290" y="290" width="30" height="30" as="geometry" />
        </mxCell>
        <mxCell id="y4AhJnp8irNAr9wBN3HV-107" value="f" style="ellipse;whiteSpace=wrap;html=1;aspect=fixed;" vertex="1" parent="1">
          <mxGeometry x="50" y="290" width="30" height="30" as="geometry" />
        </mxCell>
        <mxCell id="y4AhJnp8irNAr9wBN3HV-108" value="t" style="ellipse;whiteSpace=wrap;html=1;aspect=fixed;" vertex="1" parent="1">
          <mxGeometry x="10" y="290" width="30" height="30" as="geometry" />
        </mxCell>
        <mxCell id="y4AhJnp8irNAr9wBN3HV-109" value="e" style="ellipse;whiteSpace=wrap;html=1;aspect=fixed;" vertex="1" parent="1">
          <mxGeometry x="-30" y="290" width="30" height="30" as="geometry" />
        </mxCell>
        <mxCell id="y4AhJnp8irNAr9wBN3HV-110" value=")" style="ellipse;whiteSpace=wrap;html=1;aspect=fixed;" vertex="1" parent="1">
          <mxGeometry x="210" y="290" width="30" height="30" as="geometry" />
        </mxCell>
        <mxCell id="y4AhJnp8irNAr9wBN3HV-111" value="F" style="ellipse;whiteSpace=wrap;html=1;aspect=fixed;" vertex="1" parent="1">
          <mxGeometry x="170" y="290" width="30" height="30" as="geometry" />
        </mxCell>
        <mxCell id="y4AhJnp8irNAr9wBN3HV-112" value="(" style="ellipse;whiteSpace=wrap;html=1;aspect=fixed;" vertex="1" parent="1">
          <mxGeometry x="130" y="290" width="30" height="30" as="geometry" />
        </mxCell>
        <mxCell id="y4AhJnp8irNAr9wBN3HV-113" value="" style="endArrow=none;html=1;rounded=0;entryX=0.5;entryY=1;entryDx=0;entryDy=0;exitX=0.5;exitY=0;exitDx=0;exitDy=0;" edge="1" parent="1" source="y4AhJnp8irNAr9wBN3HV-109" target="y4AhJnp8irNAr9wBN3HV-25">
          <mxGeometry width="50" height="50" relative="1" as="geometry">
            <mxPoint x="-30" y="370" as="sourcePoint" />
            <mxPoint x="20" y="320" as="targetPoint" />
            <Array as="points">
              <mxPoint x="20" y="270" />
            </Array>
          </mxGeometry>
        </mxCell>
        <mxCell id="y4AhJnp8irNAr9wBN3HV-114" value="" style="endArrow=none;html=1;rounded=0;entryX=0.5;entryY=1;entryDx=0;entryDy=0;exitX=0.5;exitY=0;exitDx=0;exitDy=0;" edge="1" parent="1" source="y4AhJnp8irNAr9wBN3HV-108" target="y4AhJnp8irNAr9wBN3HV-25">
          <mxGeometry width="50" height="50" relative="1" as="geometry">
            <mxPoint x="230" y="330" as="sourcePoint" />
            <mxPoint x="280" y="280" as="targetPoint" />
          </mxGeometry>
        </mxCell>
        <mxCell id="y4AhJnp8irNAr9wBN3HV-115" value="" style="endArrow=none;html=1;rounded=0;entryX=0.5;entryY=1;entryDx=0;entryDy=0;exitX=0.5;exitY=0;exitDx=0;exitDy=0;" edge="1" parent="1" source="y4AhJnp8irNAr9wBN3HV-107" target="y4AhJnp8irNAr9wBN3HV-25">
          <mxGeometry width="50" height="50" relative="1" as="geometry">
            <mxPoint x="230" y="330" as="sourcePoint" />
            <mxPoint x="280" y="280" as="targetPoint" />
          </mxGeometry>
        </mxCell>
        <mxCell id="y4AhJnp8irNAr9wBN3HV-116" value="" style="endArrow=none;html=1;rounded=0;entryX=0.5;entryY=1;entryDx=0;entryDy=0;exitX=0.5;exitY=0;exitDx=0;exitDy=0;" edge="1" parent="1" source="y4AhJnp8irNAr9wBN3HV-104" target="y4AhJnp8irNAr9wBN3HV-25">
          <mxGeometry width="50" height="50" relative="1" as="geometry">
            <mxPoint x="230" y="330" as="sourcePoint" />
            <mxPoint x="280" y="280" as="targetPoint" />
          </mxGeometry>
        </mxCell>
        <mxCell id="y4AhJnp8irNAr9wBN3HV-117" value="" style="endArrow=none;html=1;rounded=0;entryX=0.5;entryY=1;entryDx=0;entryDy=0;exitX=0.5;exitY=0;exitDx=0;exitDy=0;" edge="1" parent="1" source="y4AhJnp8irNAr9wBN3HV-112" target="y4AhJnp8irNAr9wBN3HV-25">
          <mxGeometry width="50" height="50" relative="1" as="geometry">
            <mxPoint x="230" y="330" as="sourcePoint" />
            <mxPoint x="280" y="280" as="targetPoint" />
          </mxGeometry>
        </mxCell>
        <mxCell id="y4AhJnp8irNAr9wBN3HV-118" value="" style="endArrow=none;html=1;rounded=0;entryX=0.5;entryY=1;entryDx=0;entryDy=0;exitX=0.5;exitY=0;exitDx=0;exitDy=0;" edge="1" parent="1" source="y4AhJnp8irNAr9wBN3HV-111" target="y4AhJnp8irNAr9wBN3HV-25">
          <mxGeometry width="50" height="50" relative="1" as="geometry">
            <mxPoint x="230" y="330" as="sourcePoint" />
            <mxPoint x="280" y="280" as="targetPoint" />
          </mxGeometry>
        </mxCell>
        <mxCell id="y4AhJnp8irNAr9wBN3HV-120" value="" style="endArrow=none;html=1;rounded=0;entryX=0.5;entryY=1;entryDx=0;entryDy=0;exitX=0.5;exitY=0;exitDx=0;exitDy=0;" edge="1" parent="1" source="y4AhJnp8irNAr9wBN3HV-110" target="y4AhJnp8irNAr9wBN3HV-25">
          <mxGeometry width="50" height="50" relative="1" as="geometry">
            <mxPoint x="230" y="330" as="sourcePoint" />
            <mxPoint x="280" y="280" as="targetPoint" />
          </mxGeometry>
        </mxCell>
        <mxCell id="y4AhJnp8irNAr9wBN3HV-121" value="" style="endArrow=none;html=1;rounded=0;entryX=0.5;entryY=1;entryDx=0;entryDy=0;exitX=0.5;exitY=0;exitDx=0;exitDy=0;" edge="1" parent="1" source="y4AhJnp8irNAr9wBN3HV-105" target="y4AhJnp8irNAr9wBN3HV-25">
          <mxGeometry width="50" height="50" relative="1" as="geometry">
            <mxPoint x="230" y="330" as="sourcePoint" />
            <mxPoint x="280" y="280" as="targetPoint" />
          </mxGeometry>
        </mxCell>
        <mxCell id="y4AhJnp8irNAr9wBN3HV-122" value="" style="endArrow=none;html=1;rounded=0;entryX=0.5;entryY=1;entryDx=0;entryDy=0;exitX=0.5;exitY=0;exitDx=0;exitDy=0;" edge="1" parent="1" source="y4AhJnp8irNAr9wBN3HV-106" target="y4AhJnp8irNAr9wBN3HV-25">
          <mxGeometry width="50" height="50" relative="1" as="geometry">
            <mxPoint x="230" y="370" as="sourcePoint" />
            <mxPoint x="280" y="320" as="targetPoint" />
          </mxGeometry>
        </mxCell>
        <mxCell id="y4AhJnp8irNAr9wBN3HV-123" value="t" style="ellipse;whiteSpace=wrap;html=1;aspect=fixed;" vertex="1" parent="1">
          <mxGeometry x="120" y="340" width="30" height="30" as="geometry" />
        </mxCell>
        <mxCell id="y4AhJnp8irNAr9wBN3HV-124" value="i" style="ellipse;whiteSpace=wrap;html=1;aspect=fixed;" vertex="1" parent="1">
          <mxGeometry x="160" y="340" width="30" height="30" as="geometry" />
        </mxCell>
        <mxCell id="y4AhJnp8irNAr9wBN3HV-125" value="" style="endArrow=none;html=1;rounded=0;entryX=0.5;entryY=1;entryDx=0;entryDy=0;exitX=0.5;exitY=0;exitDx=0;exitDy=0;" edge="1" parent="1" source="y4AhJnp8irNAr9wBN3HV-123" target="y4AhJnp8irNAr9wBN3HV-111">
          <mxGeometry width="50" height="50" relative="1" as="geometry">
            <mxPoint x="140" y="360" as="sourcePoint" />
            <mxPoint x="190" y="310" as="targetPoint" />
          </mxGeometry>
        </mxCell>
        <mxCell id="y4AhJnp8irNAr9wBN3HV-126" value="" style="endArrow=none;html=1;rounded=0;entryX=0.5;entryY=1;entryDx=0;entryDy=0;exitX=0.5;exitY=0;exitDx=0;exitDy=0;" edge="1" parent="1" source="y4AhJnp8irNAr9wBN3HV-124" target="y4AhJnp8irNAr9wBN3HV-111">
          <mxGeometry width="50" height="50" relative="1" as="geometry">
            <mxPoint x="140" y="360" as="sourcePoint" />
            <mxPoint x="190" y="310" as="targetPoint" />
          </mxGeometry>
        </mxCell>
        <mxCell id="y4AhJnp8irNAr9wBN3HV-127" value="d" style="ellipse;whiteSpace=wrap;html=1;aspect=fixed;" vertex="1" parent="1">
          <mxGeometry x="210" y="360" width="30" height="30" as="geometry" />
        </mxCell>
        <mxCell id="y4AhJnp8irNAr9wBN3HV-128" value="t" style="ellipse;whiteSpace=wrap;html=1;aspect=fixed;" vertex="1" parent="1">
          <mxGeometry x="250" y="360" width="30" height="30" as="geometry" />
        </mxCell>
        <mxCell id="y4AhJnp8irNAr9wBN3HV-129" value="i" style="ellipse;whiteSpace=wrap;html=1;aspect=fixed;" vertex="1" parent="1">
          <mxGeometry x="290" y="360" width="30" height="30" as="geometry" />
        </mxCell>
        <mxCell id="y4AhJnp8irNAr9wBN3HV-130" value=";" style="ellipse;whiteSpace=wrap;html=1;aspect=fixed;" vertex="1" parent="1">
          <mxGeometry x="330" y="360" width="30" height="30" as="geometry" />
        </mxCell>
        <mxCell id="y4AhJnp8irNAr9wBN3HV-131" value="N" style="ellipse;whiteSpace=wrap;html=1;aspect=fixed;" vertex="1" parent="1">
          <mxGeometry x="370" y="360" width="30" height="30" as="geometry" />
        </mxCell>
        <mxCell id="y4AhJnp8irNAr9wBN3HV-132" value="" style="endArrow=none;html=1;rounded=0;entryX=0.5;entryY=1;entryDx=0;entryDy=0;exitX=0.5;exitY=0;exitDx=0;exitDy=0;" edge="1" parent="1" source="y4AhJnp8irNAr9wBN3HV-127" target="y4AhJnp8irNAr9wBN3HV-106">
          <mxGeometry width="50" height="50" relative="1" as="geometry">
            <mxPoint x="140" y="360" as="sourcePoint" />
            <mxPoint x="190" y="310" as="targetPoint" />
          </mxGeometry>
        </mxCell>
        <mxCell id="y4AhJnp8irNAr9wBN3HV-133" value="" style="endArrow=none;html=1;rounded=0;entryX=0.5;entryY=1;entryDx=0;entryDy=0;exitX=0.5;exitY=0;exitDx=0;exitDy=0;" edge="1" parent="1" source="y4AhJnp8irNAr9wBN3HV-128" target="y4AhJnp8irNAr9wBN3HV-106">
          <mxGeometry width="50" height="50" relative="1" as="geometry">
            <mxPoint x="140" y="360" as="sourcePoint" />
            <mxPoint x="190" y="310" as="targetPoint" />
          </mxGeometry>
        </mxCell>
        <mxCell id="y4AhJnp8irNAr9wBN3HV-134" value="" style="endArrow=none;html=1;rounded=0;entryX=0.5;entryY=1;entryDx=0;entryDy=0;exitX=0.5;exitY=0;exitDx=0;exitDy=0;" edge="1" parent="1" source="y4AhJnp8irNAr9wBN3HV-129" target="y4AhJnp8irNAr9wBN3HV-106">
          <mxGeometry width="50" height="50" relative="1" as="geometry">
            <mxPoint x="140" y="360" as="sourcePoint" />
            <mxPoint x="190" y="310" as="targetPoint" />
          </mxGeometry>
        </mxCell>
        <mxCell id="y4AhJnp8irNAr9wBN3HV-135" value="" style="endArrow=none;html=1;rounded=0;entryX=0.5;entryY=1;entryDx=0;entryDy=0;exitX=0.5;exitY=0;exitDx=0;exitDy=0;" edge="1" parent="1" source="y4AhJnp8irNAr9wBN3HV-130" target="y4AhJnp8irNAr9wBN3HV-106">
          <mxGeometry width="50" height="50" relative="1" as="geometry">
            <mxPoint x="140" y="360" as="sourcePoint" />
            <mxPoint x="190" y="310" as="targetPoint" />
          </mxGeometry>
        </mxCell>
        <mxCell id="y4AhJnp8irNAr9wBN3HV-136" value="" style="endArrow=none;html=1;rounded=0;entryX=0.5;entryY=1;entryDx=0;entryDy=0;exitX=0.5;exitY=0;exitDx=0;exitDy=0;" edge="1" parent="1" source="y4AhJnp8irNAr9wBN3HV-131" target="y4AhJnp8irNAr9wBN3HV-106">
          <mxGeometry width="50" height="50" relative="1" as="geometry">
            <mxPoint x="140" y="360" as="sourcePoint" />
            <mxPoint x="190" y="310" as="targetPoint" />
          </mxGeometry>
        </mxCell>
        <mxCell id="y4AhJnp8irNAr9wBN3HV-137" value="i" style="ellipse;whiteSpace=wrap;html=1;aspect=fixed;" vertex="1" parent="1">
          <mxGeometry x="210" y="420" width="30" height="30" as="geometry" />
        </mxCell>
        <mxCell id="y4AhJnp8irNAr9wBN3HV-138" value="v" style="ellipse;whiteSpace=wrap;html=1;aspect=fixed;" vertex="1" parent="1">
          <mxGeometry x="250" y="420" width="30" height="30" as="geometry" />
        </mxCell>
        <mxCell id="y4AhJnp8irNAr9wBN3HV-140" value=";" style="ellipse;whiteSpace=wrap;html=1;aspect=fixed;" vertex="1" parent="1">
          <mxGeometry x="330" y="420" width="30" height="30" as="geometry" />
        </mxCell>
        <mxCell id="y4AhJnp8irNAr9wBN3HV-141" value="N" style="ellipse;whiteSpace=wrap;html=1;aspect=fixed;" vertex="1" parent="1">
          <mxGeometry x="370" y="420" width="30" height="30" as="geometry" />
        </mxCell>
        <mxCell id="y4AhJnp8irNAr9wBN3HV-142" value="" style="endArrow=none;html=1;rounded=0;entryX=0.5;entryY=1;entryDx=0;entryDy=0;exitX=0.5;exitY=0;exitDx=0;exitDy=0;" edge="1" parent="1" source="y4AhJnp8irNAr9wBN3HV-137" target="y4AhJnp8irNAr9wBN3HV-131">
          <mxGeometry width="50" height="50" relative="1" as="geometry">
            <mxPoint x="140" y="460" as="sourcePoint" />
            <mxPoint x="190" y="410" as="targetPoint" />
          </mxGeometry>
        </mxCell>
        <mxCell id="y4AhJnp8irNAr9wBN3HV-143" value="" style="endArrow=none;html=1;rounded=0;entryX=0.5;entryY=1;entryDx=0;entryDy=0;exitX=0.5;exitY=0;exitDx=0;exitDy=0;" edge="1" parent="1" source="y4AhJnp8irNAr9wBN3HV-138" target="y4AhJnp8irNAr9wBN3HV-131">
          <mxGeometry width="50" height="50" relative="1" as="geometry">
            <mxPoint x="140" y="460" as="sourcePoint" />
            <mxPoint x="190" y="410" as="targetPoint" />
          </mxGeometry>
        </mxCell>
        <mxCell id="y4AhJnp8irNAr9wBN3HV-144" value="" style="endArrow=none;html=1;rounded=0;entryX=0.5;entryY=1;entryDx=0;entryDy=0;exitX=0.5;exitY=0;exitDx=0;exitDy=0;" edge="1" parent="1" target="y4AhJnp8irNAr9wBN3HV-131">
          <mxGeometry width="50" height="50" relative="1" as="geometry">
            <mxPoint x="305" y="420" as="sourcePoint" />
            <mxPoint x="190" y="410" as="targetPoint" />
          </mxGeometry>
        </mxCell>
        <mxCell id="y4AhJnp8irNAr9wBN3HV-145" value="" style="endArrow=none;html=1;rounded=0;entryX=0.5;entryY=1;entryDx=0;entryDy=0;exitX=0.5;exitY=0;exitDx=0;exitDy=0;" edge="1" parent="1" source="y4AhJnp8irNAr9wBN3HV-140" target="y4AhJnp8irNAr9wBN3HV-131">
          <mxGeometry width="50" height="50" relative="1" as="geometry">
            <mxPoint x="140" y="460" as="sourcePoint" />
            <mxPoint x="190" y="410" as="targetPoint" />
          </mxGeometry>
        </mxCell>
        <mxCell id="y4AhJnp8irNAr9wBN3HV-146" value="" style="endArrow=none;html=1;rounded=0;entryX=0.5;entryY=1;entryDx=0;entryDy=0;exitX=0.5;exitY=0;exitDx=0;exitDy=0;" edge="1" parent="1" source="y4AhJnp8irNAr9wBN3HV-141" target="y4AhJnp8irNAr9wBN3HV-131">
          <mxGeometry width="50" height="50" relative="1" as="geometry">
            <mxPoint x="140" y="460" as="sourcePoint" />
            <mxPoint x="190" y="410" as="targetPoint" />
          </mxGeometry>
        </mxCell>
        <mxCell id="y4AhJnp8irNAr9wBN3HV-148" value="" style="endArrow=none;html=1;rounded=0;entryX=0.5;entryY=1;entryDx=0;entryDy=0;exitX=0.5;exitY=0;exitDx=0;exitDy=0;" edge="1" parent="1" target="y4AhJnp8irNAr9wBN3HV-304">
          <mxGeometry width="50" height="50" relative="1" as="geometry">
            <mxPoint x="285" y="460" as="sourcePoint" />
            <mxPoint x="190" y="410" as="targetPoint" />
          </mxGeometry>
        </mxCell>
        <mxCell id="y4AhJnp8irNAr9wBN3HV-149" value=")" style="ellipse;whiteSpace=wrap;html=1;aspect=fixed;" vertex="1" parent="1">
          <mxGeometry x="340" y="530" width="30" height="30" as="geometry" />
        </mxCell>
        <mxCell id="y4AhJnp8irNAr9wBN3HV-150" value=";" style="ellipse;whiteSpace=wrap;html=1;aspect=fixed;" vertex="1" parent="1">
          <mxGeometry x="500" y="530" width="30" height="30" as="geometry" />
        </mxCell>
        <mxCell id="y4AhJnp8irNAr9wBN3HV-151" value="N" style="ellipse;whiteSpace=wrap;html=1;aspect=fixed;" vertex="1" parent="1">
          <mxGeometry x="540" y="530" width="30" height="30" as="geometry" />
        </mxCell>
        <mxCell id="y4AhJnp8irNAr9wBN3HV-152" value="B" style="ellipse;whiteSpace=wrap;html=1;aspect=fixed;" vertex="1" parent="1">
          <mxGeometry x="300" y="530" width="30" height="30" as="geometry" />
        </mxCell>
        <mxCell id="y4AhJnp8irNAr9wBN3HV-153" value="(" style="ellipse;whiteSpace=wrap;html=1;aspect=fixed;" vertex="1" parent="1">
          <mxGeometry x="260" y="530" width="30" height="30" as="geometry" />
        </mxCell>
        <mxCell id="y4AhJnp8irNAr9wBN3HV-154" value="o" style="ellipse;whiteSpace=wrap;html=1;aspect=fixed;" vertex="1" parent="1">
          <mxGeometry x="220" y="530" width="30" height="30" as="geometry" />
        </mxCell>
        <mxCell id="y4AhJnp8irNAr9wBN3HV-155" value="}" style="ellipse;whiteSpace=wrap;html=1;aspect=fixed;" vertex="1" parent="1">
          <mxGeometry x="460" y="530" width="30" height="30" as="geometry" />
        </mxCell>
        <mxCell id="y4AhJnp8irNAr9wBN3HV-156" value="N" style="ellipse;whiteSpace=wrap;html=1;aspect=fixed;" vertex="1" parent="1">
          <mxGeometry x="420" y="530" width="30" height="30" as="geometry" />
        </mxCell>
        <mxCell id="y4AhJnp8irNAr9wBN3HV-157" value="{" style="ellipse;whiteSpace=wrap;html=1;aspect=fixed;" vertex="1" parent="1">
          <mxGeometry x="380" y="530" width="30" height="30" as="geometry" />
        </mxCell>
        <mxCell id="y4AhJnp8irNAr9wBN3HV-158" value="" style="endArrow=none;html=1;rounded=0;entryX=0.5;entryY=0;entryDx=0;entryDy=0;exitX=0.5;exitY=1;exitDx=0;exitDy=0;" edge="1" parent="1" source="y4AhJnp8irNAr9wBN3HV-141" target="y4AhJnp8irNAr9wBN3HV-154">
          <mxGeometry width="50" height="50" relative="1" as="geometry">
            <mxPoint x="40" y="460" as="sourcePoint" />
            <mxPoint x="90" y="410" as="targetPoint" />
          </mxGeometry>
        </mxCell>
        <mxCell id="y4AhJnp8irNAr9wBN3HV-159" value="" style="endArrow=none;html=1;rounded=0;entryX=0.5;entryY=1;entryDx=0;entryDy=0;exitX=0.5;exitY=0;exitDx=0;exitDy=0;" edge="1" parent="1" source="y4AhJnp8irNAr9wBN3HV-153" target="y4AhJnp8irNAr9wBN3HV-141">
          <mxGeometry width="50" height="50" relative="1" as="geometry">
            <mxPoint x="150" y="460" as="sourcePoint" />
            <mxPoint x="200" y="410" as="targetPoint" />
          </mxGeometry>
        </mxCell>
        <mxCell id="y4AhJnp8irNAr9wBN3HV-160" value="" style="endArrow=none;html=1;rounded=0;entryX=0.5;entryY=1;entryDx=0;entryDy=0;exitX=0.5;exitY=0;exitDx=0;exitDy=0;" edge="1" parent="1" source="y4AhJnp8irNAr9wBN3HV-152" target="y4AhJnp8irNAr9wBN3HV-141">
          <mxGeometry width="50" height="50" relative="1" as="geometry">
            <mxPoint x="150" y="460" as="sourcePoint" />
            <mxPoint x="200" y="410" as="targetPoint" />
          </mxGeometry>
        </mxCell>
        <mxCell id="y4AhJnp8irNAr9wBN3HV-161" value="" style="endArrow=none;html=1;rounded=0;entryX=0.5;entryY=1;entryDx=0;entryDy=0;exitX=0.5;exitY=0;exitDx=0;exitDy=0;" edge="1" parent="1" source="y4AhJnp8irNAr9wBN3HV-149" target="y4AhJnp8irNAr9wBN3HV-141">
          <mxGeometry width="50" height="50" relative="1" as="geometry">
            <mxPoint x="150" y="460" as="sourcePoint" />
            <mxPoint x="200" y="410" as="targetPoint" />
          </mxGeometry>
        </mxCell>
        <mxCell id="y4AhJnp8irNAr9wBN3HV-162" value="" style="endArrow=none;html=1;rounded=0;entryX=0.5;entryY=1;entryDx=0;entryDy=0;exitX=0.5;exitY=0;exitDx=0;exitDy=0;" edge="1" parent="1" source="y4AhJnp8irNAr9wBN3HV-157" target="y4AhJnp8irNAr9wBN3HV-141">
          <mxGeometry width="50" height="50" relative="1" as="geometry">
            <mxPoint x="150" y="460" as="sourcePoint" />
            <mxPoint x="200" y="410" as="targetPoint" />
          </mxGeometry>
        </mxCell>
        <mxCell id="y4AhJnp8irNAr9wBN3HV-163" value="" style="endArrow=none;html=1;rounded=0;entryX=0.5;entryY=1;entryDx=0;entryDy=0;exitX=0.5;exitY=0;exitDx=0;exitDy=0;" edge="1" parent="1" source="y4AhJnp8irNAr9wBN3HV-156" target="y4AhJnp8irNAr9wBN3HV-141">
          <mxGeometry width="50" height="50" relative="1" as="geometry">
            <mxPoint x="150" y="460" as="sourcePoint" />
            <mxPoint x="200" y="410" as="targetPoint" />
          </mxGeometry>
        </mxCell>
        <mxCell id="y4AhJnp8irNAr9wBN3HV-164" value="" style="endArrow=none;html=1;rounded=0;entryX=0.5;entryY=1;entryDx=0;entryDy=0;exitX=0.5;exitY=0;exitDx=0;exitDy=0;" edge="1" parent="1" source="y4AhJnp8irNAr9wBN3HV-155" target="y4AhJnp8irNAr9wBN3HV-141">
          <mxGeometry width="50" height="50" relative="1" as="geometry">
            <mxPoint x="150" y="460" as="sourcePoint" />
            <mxPoint x="200" y="410" as="targetPoint" />
          </mxGeometry>
        </mxCell>
        <mxCell id="y4AhJnp8irNAr9wBN3HV-165" value="" style="endArrow=none;html=1;rounded=0;entryX=0.5;entryY=1;entryDx=0;entryDy=0;exitX=0.5;exitY=0;exitDx=0;exitDy=0;" edge="1" parent="1" source="y4AhJnp8irNAr9wBN3HV-150" target="y4AhJnp8irNAr9wBN3HV-141">
          <mxGeometry width="50" height="50" relative="1" as="geometry">
            <mxPoint x="150" y="460" as="sourcePoint" />
            <mxPoint x="200" y="410" as="targetPoint" />
          </mxGeometry>
        </mxCell>
        <mxCell id="y4AhJnp8irNAr9wBN3HV-166" value="" style="endArrow=none;html=1;rounded=0;entryX=0.5;entryY=1;entryDx=0;entryDy=0;exitX=0.5;exitY=0;exitDx=0;exitDy=0;" edge="1" parent="1" source="y4AhJnp8irNAr9wBN3HV-151" target="y4AhJnp8irNAr9wBN3HV-141">
          <mxGeometry width="50" height="50" relative="1" as="geometry">
            <mxPoint x="150" y="460" as="sourcePoint" />
            <mxPoint x="200" y="410" as="targetPoint" />
          </mxGeometry>
        </mxCell>
        <mxCell id="y4AhJnp8irNAr9wBN3HV-167" value="l" style="ellipse;whiteSpace=wrap;html=1;aspect=fixed;" vertex="1" parent="1">
          <mxGeometry x="320" y="570" width="30" height="30" as="geometry" />
        </mxCell>
        <mxCell id="y4AhJnp8irNAr9wBN3HV-168" value="b" style="ellipse;whiteSpace=wrap;html=1;aspect=fixed;" vertex="1" parent="1">
          <mxGeometry x="280" y="570" width="30" height="30" as="geometry" />
        </mxCell>
        <mxCell id="y4AhJnp8irNAr9wBN3HV-169" value="i" style="ellipse;whiteSpace=wrap;html=1;aspect=fixed;" vertex="1" parent="1">
          <mxGeometry x="240" y="570" width="30" height="30" as="geometry" />
        </mxCell>
        <mxCell id="y4AhJnp8irNAr9wBN3HV-170" value="" style="endArrow=none;html=1;rounded=0;entryX=0.5;entryY=1;entryDx=0;entryDy=0;exitX=0.5;exitY=0;exitDx=0;exitDy=0;" edge="1" parent="1" source="y4AhJnp8irNAr9wBN3HV-169" target="y4AhJnp8irNAr9wBN3HV-152">
          <mxGeometry width="50" height="50" relative="1" as="geometry">
            <mxPoint x="140" y="430" as="sourcePoint" />
            <mxPoint x="190" y="380" as="targetPoint" />
          </mxGeometry>
        </mxCell>
        <mxCell id="y4AhJnp8irNAr9wBN3HV-171" value="" style="endArrow=none;html=1;rounded=0;entryX=0.5;entryY=1;entryDx=0;entryDy=0;exitX=0.5;exitY=0;exitDx=0;exitDy=0;" edge="1" parent="1" source="y4AhJnp8irNAr9wBN3HV-168" target="y4AhJnp8irNAr9wBN3HV-152">
          <mxGeometry width="50" height="50" relative="1" as="geometry">
            <mxPoint x="140" y="430" as="sourcePoint" />
            <mxPoint x="190" y="380" as="targetPoint" />
          </mxGeometry>
        </mxCell>
        <mxCell id="y4AhJnp8irNAr9wBN3HV-172" value="" style="endArrow=none;html=1;rounded=0;entryX=0.5;entryY=1;entryDx=0;entryDy=0;exitX=0.5;exitY=0;exitDx=0;exitDy=0;" edge="1" parent="1" source="y4AhJnp8irNAr9wBN3HV-167" target="y4AhJnp8irNAr9wBN3HV-152">
          <mxGeometry width="50" height="50" relative="1" as="geometry">
            <mxPoint x="140" y="430" as="sourcePoint" />
            <mxPoint x="190" y="380" as="targetPoint" />
          </mxGeometry>
        </mxCell>
        <mxCell id="y4AhJnp8irNAr9wBN3HV-173" value="l" style="ellipse;whiteSpace=wrap;html=1;aspect=fixed;" vertex="1" parent="1">
          <mxGeometry x="440" y="570" width="30" height="30" as="geometry" />
        </mxCell>
        <mxCell id="y4AhJnp8irNAr9wBN3HV-174" value="p" style="ellipse;whiteSpace=wrap;html=1;aspect=fixed;" vertex="1" parent="1">
          <mxGeometry x="400" y="570" width="30" height="30" as="geometry" />
        </mxCell>
        <mxCell id="y4AhJnp8irNAr9wBN3HV-175" value="" style="endArrow=none;html=1;rounded=0;entryX=0.5;entryY=1;entryDx=0;entryDy=0;exitX=0.5;exitY=0;exitDx=0;exitDy=0;" edge="1" parent="1" source="y4AhJnp8irNAr9wBN3HV-174" target="y4AhJnp8irNAr9wBN3HV-156">
          <mxGeometry width="50" height="50" relative="1" as="geometry">
            <mxPoint x="240" y="500" as="sourcePoint" />
            <mxPoint x="290" y="450" as="targetPoint" />
          </mxGeometry>
        </mxCell>
        <mxCell id="y4AhJnp8irNAr9wBN3HV-176" value="" style="endArrow=none;html=1;rounded=0;entryX=0.5;entryY=1;entryDx=0;entryDy=0;exitX=0.5;exitY=0;exitDx=0;exitDy=0;" edge="1" parent="1" source="y4AhJnp8irNAr9wBN3HV-173" target="y4AhJnp8irNAr9wBN3HV-156">
          <mxGeometry width="50" height="50" relative="1" as="geometry">
            <mxPoint x="240" y="810" as="sourcePoint" />
            <mxPoint x="290" y="760" as="targetPoint" />
          </mxGeometry>
        </mxCell>
        <mxCell id="y4AhJnp8irNAr9wBN3HV-178" value=";" style="ellipse;whiteSpace=wrap;html=1;aspect=fixed;" vertex="1" parent="1">
          <mxGeometry x="480" y="570" width="30" height="30" as="geometry" />
        </mxCell>
        <mxCell id="y4AhJnp8irNAr9wBN3HV-179" value="" style="endArrow=none;html=1;rounded=0;entryX=0.5;entryY=1;entryDx=0;entryDy=0;exitX=0.5;exitY=0;exitDx=0;exitDy=0;" edge="1" parent="1" source="y4AhJnp8irNAr9wBN3HV-178" target="y4AhJnp8irNAr9wBN3HV-156">
          <mxGeometry width="50" height="50" relative="1" as="geometry">
            <mxPoint x="240" y="810" as="sourcePoint" />
            <mxPoint x="290" y="760" as="targetPoint" />
          </mxGeometry>
        </mxCell>
        <mxCell id="y4AhJnp8irNAr9wBN3HV-184" value="" style="endArrow=none;html=1;rounded=0;entryX=0.5;entryY=1;entryDx=0;entryDy=0;exitX=0.5;exitY=0;exitDx=0;exitDy=0;" edge="1" parent="1" source="y4AhJnp8irNAr9wBN3HV-187" target="y4AhJnp8irNAr9wBN3HV-151">
          <mxGeometry width="50" height="50" relative="1" as="geometry">
            <mxPoint x="280" y="870" as="sourcePoint" />
            <mxPoint x="330" y="820" as="targetPoint" />
          </mxGeometry>
        </mxCell>
        <mxCell id="y4AhJnp8irNAr9wBN3HV-187" value="1" style="ellipse;whiteSpace=wrap;html=1;aspect=fixed;" vertex="1" parent="1">
          <mxGeometry x="540" y="570" width="30" height="30" as="geometry" />
        </mxCell>
        <mxCell id="y4AhJnp8irNAr9wBN3HV-188" value="1" style="ellipse;whiteSpace=wrap;html=1;aspect=fixed;" vertex="1" parent="1">
          <mxGeometry x="-570" y="180" width="30" height="30" as="geometry" />
        </mxCell>
        <mxCell id="y4AhJnp8irNAr9wBN3HV-189" value="[" style="ellipse;whiteSpace=wrap;html=1;aspect=fixed;" vertex="1" parent="1">
          <mxGeometry x="-580" y="230" width="30" height="30" as="geometry" />
        </mxCell>
        <mxCell id="y4AhJnp8irNAr9wBN3HV-190" value="N" style="ellipse;whiteSpace=wrap;html=1;aspect=fixed;" vertex="1" parent="1">
          <mxGeometry x="-420" y="230" width="30" height="30" as="geometry" />
        </mxCell>
        <mxCell id="y4AhJnp8irNAr9wBN3HV-191" value="i" style="ellipse;whiteSpace=wrap;html=1;aspect=fixed;" vertex="1" parent="1">
          <mxGeometry x="-620" y="230" width="30" height="30" as="geometry" />
        </mxCell>
        <mxCell id="y4AhJnp8irNAr9wBN3HV-192" value="a" style="ellipse;whiteSpace=wrap;html=1;aspect=fixed;" vertex="1" parent="1">
          <mxGeometry x="-660" y="230" width="30" height="30" as="geometry" />
        </mxCell>
        <mxCell id="y4AhJnp8irNAr9wBN3HV-193" value="d" style="ellipse;whiteSpace=wrap;html=1;aspect=fixed;" vertex="1" parent="1">
          <mxGeometry x="-700" y="230" width="30" height="30" as="geometry" />
        </mxCell>
        <mxCell id="y4AhJnp8irNAr9wBN3HV-194" value=";" style="ellipse;whiteSpace=wrap;html=1;aspect=fixed;" vertex="1" parent="1">
          <mxGeometry x="-460" y="230" width="30" height="30" as="geometry" />
        </mxCell>
        <mxCell id="y4AhJnp8irNAr9wBN3HV-195" value="]" style="ellipse;whiteSpace=wrap;html=1;aspect=fixed;" vertex="1" parent="1">
          <mxGeometry x="-500" y="230" width="30" height="30" as="geometry" />
        </mxCell>
        <mxCell id="y4AhJnp8irNAr9wBN3HV-196" value="l" style="ellipse;whiteSpace=wrap;html=1;aspect=fixed;" vertex="1" parent="1">
          <mxGeometry x="-540" y="230" width="30" height="30" as="geometry" />
        </mxCell>
        <mxCell id="y4AhJnp8irNAr9wBN3HV-197" value="" style="endArrow=none;html=1;rounded=0;entryX=0.5;entryY=1;entryDx=0;entryDy=0;exitX=0.5;exitY=0;exitDx=0;exitDy=0;" edge="1" parent="1" source="y4AhJnp8irNAr9wBN3HV-193" target="y4AhJnp8irNAr9wBN3HV-188">
          <mxGeometry width="50" height="50" relative="1" as="geometry">
            <mxPoint x="-460" y="370" as="sourcePoint" />
            <mxPoint x="-410" y="320" as="targetPoint" />
          </mxGeometry>
        </mxCell>
        <mxCell id="y4AhJnp8irNAr9wBN3HV-198" value="" style="endArrow=none;html=1;rounded=0;entryX=0.5;entryY=1;entryDx=0;entryDy=0;exitX=0.5;exitY=0;exitDx=0;exitDy=0;" edge="1" parent="1" source="y4AhJnp8irNAr9wBN3HV-192" target="y4AhJnp8irNAr9wBN3HV-188">
          <mxGeometry width="50" height="50" relative="1" as="geometry">
            <mxPoint x="-460" y="370" as="sourcePoint" />
            <mxPoint x="-410" y="320" as="targetPoint" />
          </mxGeometry>
        </mxCell>
        <mxCell id="y4AhJnp8irNAr9wBN3HV-201" value="" style="endArrow=none;html=1;rounded=0;entryX=0.5;entryY=1;entryDx=0;entryDy=0;exitX=0.5;exitY=0;exitDx=0;exitDy=0;" edge="1" parent="1" source="y4AhJnp8irNAr9wBN3HV-191" target="y4AhJnp8irNAr9wBN3HV-188">
          <mxGeometry width="50" height="50" relative="1" as="geometry">
            <mxPoint x="-460" y="370" as="sourcePoint" />
            <mxPoint x="-410" y="320" as="targetPoint" />
          </mxGeometry>
        </mxCell>
        <mxCell id="y4AhJnp8irNAr9wBN3HV-202" value="" style="endArrow=none;html=1;rounded=0;entryX=0.5;entryY=1;entryDx=0;entryDy=0;exitX=0.5;exitY=0;exitDx=0;exitDy=0;" edge="1" parent="1" source="y4AhJnp8irNAr9wBN3HV-189" target="y4AhJnp8irNAr9wBN3HV-188">
          <mxGeometry width="50" height="50" relative="1" as="geometry">
            <mxPoint x="-460" y="370" as="sourcePoint" />
            <mxPoint x="-410" y="320" as="targetPoint" />
          </mxGeometry>
        </mxCell>
        <mxCell id="y4AhJnp8irNAr9wBN3HV-203" value="" style="endArrow=none;html=1;rounded=0;entryX=0.5;entryY=1;entryDx=0;entryDy=0;exitX=0.5;exitY=0;exitDx=0;exitDy=0;" edge="1" parent="1" source="y4AhJnp8irNAr9wBN3HV-196" target="y4AhJnp8irNAr9wBN3HV-188">
          <mxGeometry width="50" height="50" relative="1" as="geometry">
            <mxPoint x="-460" y="370" as="sourcePoint" />
            <mxPoint x="-410" y="320" as="targetPoint" />
          </mxGeometry>
        </mxCell>
        <mxCell id="y4AhJnp8irNAr9wBN3HV-204" value="" style="endArrow=none;html=1;rounded=0;entryX=0.5;entryY=1;entryDx=0;entryDy=0;exitX=0.5;exitY=0;exitDx=0;exitDy=0;" edge="1" parent="1" source="y4AhJnp8irNAr9wBN3HV-195" target="y4AhJnp8irNAr9wBN3HV-188">
          <mxGeometry width="50" height="50" relative="1" as="geometry">
            <mxPoint x="-460" y="370" as="sourcePoint" />
            <mxPoint x="-490" y="300" as="targetPoint" />
          </mxGeometry>
        </mxCell>
        <mxCell id="y4AhJnp8irNAr9wBN3HV-205" value="" style="endArrow=none;html=1;rounded=0;entryX=0.5;entryY=1;entryDx=0;entryDy=0;exitX=0.5;exitY=0;exitDx=0;exitDy=0;" edge="1" parent="1" source="y4AhJnp8irNAr9wBN3HV-194" target="y4AhJnp8irNAr9wBN3HV-188">
          <mxGeometry width="50" height="50" relative="1" as="geometry">
            <mxPoint x="-460" y="370" as="sourcePoint" />
            <mxPoint x="-410" y="320" as="targetPoint" />
          </mxGeometry>
        </mxCell>
        <mxCell id="y4AhJnp8irNAr9wBN3HV-206" value="" style="endArrow=none;html=1;rounded=0;entryX=0.5;entryY=1;entryDx=0;entryDy=0;exitX=0.5;exitY=0;exitDx=0;exitDy=0;" edge="1" parent="1" source="y4AhJnp8irNAr9wBN3HV-190" target="y4AhJnp8irNAr9wBN3HV-188">
          <mxGeometry width="50" height="50" relative="1" as="geometry">
            <mxPoint x="-460" y="370" as="sourcePoint" />
            <mxPoint x="-410" y="320" as="targetPoint" />
          </mxGeometry>
        </mxCell>
        <mxCell id="y4AhJnp8irNAr9wBN3HV-207" value="d" style="ellipse;whiteSpace=wrap;html=1;aspect=fixed;" vertex="1" parent="1">
          <mxGeometry x="-680" y="280" width="30" height="30" as="geometry" />
        </mxCell>
        <mxCell id="y4AhJnp8irNAr9wBN3HV-208" value="t" style="ellipse;whiteSpace=wrap;html=1;aspect=fixed;" vertex="1" parent="1">
          <mxGeometry x="-640" y="280" width="30" height="30" as="geometry" />
        </mxCell>
        <mxCell id="y4AhJnp8irNAr9wBN3HV-209" value="i" style="ellipse;whiteSpace=wrap;html=1;aspect=fixed;" vertex="1" parent="1">
          <mxGeometry x="-600" y="280" width="30" height="30" as="geometry" />
        </mxCell>
        <mxCell id="y4AhJnp8irNAr9wBN3HV-210" value=";" style="ellipse;whiteSpace=wrap;html=1;aspect=fixed;" vertex="1" parent="1">
          <mxGeometry x="-560" y="280" width="30" height="30" as="geometry" />
        </mxCell>
        <mxCell id="y4AhJnp8irNAr9wBN3HV-211" value="N" style="ellipse;whiteSpace=wrap;html=1;aspect=fixed;" vertex="1" parent="1">
          <mxGeometry x="-520" y="280" width="30" height="30" as="geometry" />
        </mxCell>
        <mxCell id="y4AhJnp8irNAr9wBN3HV-215" value="" style="endArrow=none;html=1;rounded=0;entryX=0.5;entryY=1;entryDx=0;entryDy=0;exitX=0.5;exitY=0;exitDx=0;exitDy=0;" edge="1" parent="1" source="y4AhJnp8irNAr9wBN3HV-207" target="y4AhJnp8irNAr9wBN3HV-190">
          <mxGeometry width="50" height="50" relative="1" as="geometry">
            <mxPoint x="-160" y="370" as="sourcePoint" />
            <mxPoint x="-110" y="320" as="targetPoint" />
          </mxGeometry>
        </mxCell>
        <mxCell id="y4AhJnp8irNAr9wBN3HV-216" value="" style="endArrow=none;html=1;rounded=0;entryX=0.5;entryY=1;entryDx=0;entryDy=0;exitX=0.5;exitY=0;exitDx=0;exitDy=0;" edge="1" parent="1" source="y4AhJnp8irNAr9wBN3HV-208" target="y4AhJnp8irNAr9wBN3HV-190">
          <mxGeometry width="50" height="50" relative="1" as="geometry">
            <mxPoint x="-340" y="280" as="sourcePoint" />
            <mxPoint x="-290" y="230" as="targetPoint" />
          </mxGeometry>
        </mxCell>
        <mxCell id="y4AhJnp8irNAr9wBN3HV-217" value="" style="endArrow=none;html=1;rounded=0;entryX=0.5;entryY=1;entryDx=0;entryDy=0;exitX=0.5;exitY=0;exitDx=0;exitDy=0;" edge="1" parent="1" source="y4AhJnp8irNAr9wBN3HV-209" target="y4AhJnp8irNAr9wBN3HV-190">
          <mxGeometry width="50" height="50" relative="1" as="geometry">
            <mxPoint x="-340" y="460" as="sourcePoint" />
            <mxPoint x="-290" y="410" as="targetPoint" />
          </mxGeometry>
        </mxCell>
        <mxCell id="y4AhJnp8irNAr9wBN3HV-218" value="" style="endArrow=none;html=1;rounded=0;entryX=0.5;entryY=1;entryDx=0;entryDy=0;exitX=0.5;exitY=0;exitDx=0;exitDy=0;" edge="1" parent="1" source="y4AhJnp8irNAr9wBN3HV-210" target="y4AhJnp8irNAr9wBN3HV-190">
          <mxGeometry width="50" height="50" relative="1" as="geometry">
            <mxPoint x="-340" y="460" as="sourcePoint" />
            <mxPoint x="-290" y="410" as="targetPoint" />
          </mxGeometry>
        </mxCell>
        <mxCell id="y4AhJnp8irNAr9wBN3HV-219" value="" style="endArrow=none;html=1;rounded=0;entryX=0.5;entryY=1;entryDx=0;entryDy=0;exitX=0.5;exitY=0;exitDx=0;exitDy=0;" edge="1" parent="1" source="y4AhJnp8irNAr9wBN3HV-211" target="y4AhJnp8irNAr9wBN3HV-190">
          <mxGeometry width="50" height="50" relative="1" as="geometry">
            <mxPoint x="-340" y="460" as="sourcePoint" />
            <mxPoint x="-290" y="410" as="targetPoint" />
          </mxGeometry>
        </mxCell>
        <mxCell id="y4AhJnp8irNAr9wBN3HV-221" value="N" style="ellipse;whiteSpace=wrap;html=1;aspect=fixed;" vertex="1" parent="1">
          <mxGeometry x="-520" y="280" width="30" height="30" as="geometry" />
        </mxCell>
        <mxCell id="y4AhJnp8irNAr9wBN3HV-229" value="p" style="ellipse;whiteSpace=wrap;html=1;aspect=fixed;" vertex="1" parent="1">
          <mxGeometry x="-640" y="330" width="30" height="30" as="geometry" />
        </mxCell>
        <mxCell id="y4AhJnp8irNAr9wBN3HV-230" value="i" style="ellipse;whiteSpace=wrap;html=1;aspect=fixed;" vertex="1" parent="1">
          <mxGeometry x="-600" y="330" width="30" height="30" as="geometry" />
        </mxCell>
        <mxCell id="y4AhJnp8irNAr9wBN3HV-231" value=";" style="ellipse;whiteSpace=wrap;html=1;aspect=fixed;" vertex="1" parent="1">
          <mxGeometry x="-560" y="330" width="30" height="30" as="geometry" />
        </mxCell>
        <mxCell id="y4AhJnp8irNAr9wBN3HV-232" value="N" style="ellipse;whiteSpace=wrap;html=1;aspect=fixed;" vertex="1" parent="1">
          <mxGeometry x="-520" y="330" width="30" height="30" as="geometry" />
        </mxCell>
        <mxCell id="y4AhJnp8irNAr9wBN3HV-234" value="" style="endArrow=none;html=1;rounded=0;entryX=0.5;entryY=1;entryDx=0;entryDy=0;exitX=0.5;exitY=0;exitDx=0;exitDy=0;" edge="1" parent="1" source="y4AhJnp8irNAr9wBN3HV-229" target="y4AhJnp8irNAr9wBN3HV-221">
          <mxGeometry width="50" height="50" relative="1" as="geometry">
            <mxPoint x="-320" y="400" as="sourcePoint" />
            <mxPoint x="-270" y="350" as="targetPoint" />
          </mxGeometry>
        </mxCell>
        <mxCell id="y4AhJnp8irNAr9wBN3HV-235" value="" style="endArrow=none;html=1;rounded=0;entryX=0.5;entryY=1;entryDx=0;entryDy=0;exitX=0.5;exitY=0;exitDx=0;exitDy=0;" edge="1" parent="1" source="y4AhJnp8irNAr9wBN3HV-230" target="y4AhJnp8irNAr9wBN3HV-221">
          <mxGeometry width="50" height="50" relative="1" as="geometry">
            <mxPoint x="-320" y="580" as="sourcePoint" />
            <mxPoint x="-270" y="530" as="targetPoint" />
          </mxGeometry>
        </mxCell>
        <mxCell id="y4AhJnp8irNAr9wBN3HV-236" value="" style="endArrow=none;html=1;rounded=0;entryX=0.5;entryY=1;entryDx=0;entryDy=0;exitX=0.5;exitY=0;exitDx=0;exitDy=0;" edge="1" parent="1" source="y4AhJnp8irNAr9wBN3HV-231" target="y4AhJnp8irNAr9wBN3HV-221">
          <mxGeometry width="50" height="50" relative="1" as="geometry">
            <mxPoint x="-320" y="580" as="sourcePoint" />
            <mxPoint x="-270" y="530" as="targetPoint" />
          </mxGeometry>
        </mxCell>
        <mxCell id="y4AhJnp8irNAr9wBN3HV-237" value="" style="endArrow=none;html=1;rounded=0;entryX=0.5;entryY=1;entryDx=0;entryDy=0;exitX=0.5;exitY=0;exitDx=0;exitDy=0;" edge="1" parent="1" source="y4AhJnp8irNAr9wBN3HV-232" target="y4AhJnp8irNAr9wBN3HV-221">
          <mxGeometry width="50" height="50" relative="1" as="geometry">
            <mxPoint x="-320" y="580" as="sourcePoint" />
            <mxPoint x="-270" y="530" as="targetPoint" />
          </mxGeometry>
        </mxCell>
        <mxCell id="y4AhJnp8irNAr9wBN3HV-242" value="N" style="ellipse;whiteSpace=wrap;html=1;aspect=fixed;" vertex="1" parent="1">
          <mxGeometry x="-520" y="330" width="30" height="30" as="geometry" />
        </mxCell>
        <mxCell id="y4AhJnp8irNAr9wBN3HV-245" value=")" style="ellipse;whiteSpace=wrap;html=1;aspect=fixed;" vertex="1" parent="1">
          <mxGeometry x="-620" y="400" width="30" height="30" as="geometry" />
        </mxCell>
        <mxCell id="y4AhJnp8irNAr9wBN3HV-246" value=";" style="ellipse;whiteSpace=wrap;html=1;aspect=fixed;" vertex="1" parent="1">
          <mxGeometry x="-460" y="400" width="30" height="30" as="geometry" />
        </mxCell>
        <mxCell id="y4AhJnp8irNAr9wBN3HV-247" value="N" style="ellipse;whiteSpace=wrap;html=1;aspect=fixed;" vertex="1" parent="1">
          <mxGeometry x="-420" y="400" width="30" height="30" as="geometry" />
        </mxCell>
        <mxCell id="y4AhJnp8irNAr9wBN3HV-248" value="B" style="ellipse;whiteSpace=wrap;html=1;aspect=fixed;" vertex="1" parent="1">
          <mxGeometry x="-660" y="400" width="30" height="30" as="geometry" />
        </mxCell>
        <mxCell id="y4AhJnp8irNAr9wBN3HV-249" value="(" style="ellipse;whiteSpace=wrap;html=1;aspect=fixed;" vertex="1" parent="1">
          <mxGeometry x="-700" y="400" width="30" height="30" as="geometry" />
        </mxCell>
        <mxCell id="y4AhJnp8irNAr9wBN3HV-250" value="u" style="ellipse;whiteSpace=wrap;html=1;aspect=fixed;" vertex="1" parent="1">
          <mxGeometry x="-740" y="400" width="30" height="30" as="geometry" />
        </mxCell>
        <mxCell id="y4AhJnp8irNAr9wBN3HV-251" value="}" style="ellipse;whiteSpace=wrap;html=1;aspect=fixed;" vertex="1" parent="1">
          <mxGeometry x="-500" y="400" width="30" height="30" as="geometry" />
        </mxCell>
        <mxCell id="y4AhJnp8irNAr9wBN3HV-252" value="N" style="ellipse;whiteSpace=wrap;html=1;aspect=fixed;" vertex="1" parent="1">
          <mxGeometry x="-540" y="400" width="30" height="30" as="geometry" />
        </mxCell>
        <mxCell id="y4AhJnp8irNAr9wBN3HV-253" value="{" style="ellipse;whiteSpace=wrap;html=1;aspect=fixed;" vertex="1" parent="1">
          <mxGeometry x="-580" y="400" width="30" height="30" as="geometry" />
        </mxCell>
        <mxCell id="y4AhJnp8irNAr9wBN3HV-254" value="" style="endArrow=none;html=1;rounded=0;entryX=0.5;entryY=0;entryDx=0;entryDy=0;exitX=0.5;exitY=1;exitDx=0;exitDy=0;" edge="1" parent="1" source="y4AhJnp8irNAr9wBN3HV-242" target="y4AhJnp8irNAr9wBN3HV-250">
          <mxGeometry width="50" height="50" relative="1" as="geometry">
            <mxPoint x="-835" y="450" as="sourcePoint" />
            <mxPoint x="-785" y="400" as="targetPoint" />
          </mxGeometry>
        </mxCell>
        <mxCell id="y4AhJnp8irNAr9wBN3HV-255" value="" style="endArrow=none;html=1;rounded=0;entryX=0.5;entryY=1;entryDx=0;entryDy=0;exitX=0.5;exitY=0;exitDx=0;exitDy=0;" edge="1" parent="1" source="y4AhJnp8irNAr9wBN3HV-249" target="y4AhJnp8irNAr9wBN3HV-242">
          <mxGeometry width="50" height="50" relative="1" as="geometry">
            <mxPoint x="-725" y="450" as="sourcePoint" />
            <mxPoint x="-675" y="400" as="targetPoint" />
          </mxGeometry>
        </mxCell>
        <mxCell id="y4AhJnp8irNAr9wBN3HV-256" value="" style="endArrow=none;html=1;rounded=0;entryX=0.5;entryY=1;entryDx=0;entryDy=0;exitX=0.5;exitY=0;exitDx=0;exitDy=0;" edge="1" parent="1" source="y4AhJnp8irNAr9wBN3HV-248" target="y4AhJnp8irNAr9wBN3HV-242">
          <mxGeometry width="50" height="50" relative="1" as="geometry">
            <mxPoint x="-725" y="450" as="sourcePoint" />
            <mxPoint x="-675" y="400" as="targetPoint" />
          </mxGeometry>
        </mxCell>
        <mxCell id="y4AhJnp8irNAr9wBN3HV-257" value="" style="endArrow=none;html=1;rounded=0;entryX=0.5;entryY=1;entryDx=0;entryDy=0;exitX=0.5;exitY=0;exitDx=0;exitDy=0;" edge="1" parent="1" source="y4AhJnp8irNAr9wBN3HV-245" target="y4AhJnp8irNAr9wBN3HV-242">
          <mxGeometry width="50" height="50" relative="1" as="geometry">
            <mxPoint x="-725" y="450" as="sourcePoint" />
            <mxPoint x="-675" y="400" as="targetPoint" />
          </mxGeometry>
        </mxCell>
        <mxCell id="y4AhJnp8irNAr9wBN3HV-258" value="" style="endArrow=none;html=1;rounded=0;entryX=0.5;entryY=1;entryDx=0;entryDy=0;exitX=0.5;exitY=0;exitDx=0;exitDy=0;" edge="1" parent="1" source="y4AhJnp8irNAr9wBN3HV-253" target="y4AhJnp8irNAr9wBN3HV-242">
          <mxGeometry width="50" height="50" relative="1" as="geometry">
            <mxPoint x="-725" y="450" as="sourcePoint" />
            <mxPoint x="-675" y="400" as="targetPoint" />
          </mxGeometry>
        </mxCell>
        <mxCell id="y4AhJnp8irNAr9wBN3HV-259" value="" style="endArrow=none;html=1;rounded=0;entryX=0.5;entryY=1;entryDx=0;entryDy=0;exitX=0.5;exitY=0;exitDx=0;exitDy=0;" edge="1" parent="1" source="y4AhJnp8irNAr9wBN3HV-252" target="y4AhJnp8irNAr9wBN3HV-242">
          <mxGeometry width="50" height="50" relative="1" as="geometry">
            <mxPoint x="-725" y="450" as="sourcePoint" />
            <mxPoint x="-675" y="400" as="targetPoint" />
          </mxGeometry>
        </mxCell>
        <mxCell id="y4AhJnp8irNAr9wBN3HV-260" value="" style="endArrow=none;html=1;rounded=0;entryX=0.5;entryY=1;entryDx=0;entryDy=0;exitX=0.5;exitY=0;exitDx=0;exitDy=0;" edge="1" parent="1" source="y4AhJnp8irNAr9wBN3HV-251" target="y4AhJnp8irNAr9wBN3HV-242">
          <mxGeometry width="50" height="50" relative="1" as="geometry">
            <mxPoint x="-725" y="450" as="sourcePoint" />
            <mxPoint x="-675" y="400" as="targetPoint" />
          </mxGeometry>
        </mxCell>
        <mxCell id="y4AhJnp8irNAr9wBN3HV-261" value="" style="endArrow=none;html=1;rounded=0;entryX=0.5;entryY=1;entryDx=0;entryDy=0;exitX=0.5;exitY=0;exitDx=0;exitDy=0;" edge="1" parent="1" source="y4AhJnp8irNAr9wBN3HV-246" target="y4AhJnp8irNAr9wBN3HV-242">
          <mxGeometry width="50" height="50" relative="1" as="geometry">
            <mxPoint x="-725" y="450" as="sourcePoint" />
            <mxPoint x="-675" y="400" as="targetPoint" />
          </mxGeometry>
        </mxCell>
        <mxCell id="y4AhJnp8irNAr9wBN3HV-262" value="" style="endArrow=none;html=1;rounded=0;entryX=0.5;entryY=1;entryDx=0;entryDy=0;exitX=0.5;exitY=0;exitDx=0;exitDy=0;" edge="1" parent="1" source="y4AhJnp8irNAr9wBN3HV-247" target="y4AhJnp8irNAr9wBN3HV-242">
          <mxGeometry width="50" height="50" relative="1" as="geometry">
            <mxPoint x="-725" y="450" as="sourcePoint" />
            <mxPoint x="-675" y="400" as="targetPoint" />
          </mxGeometry>
        </mxCell>
        <mxCell id="y4AhJnp8irNAr9wBN3HV-263" value="B" style="ellipse;whiteSpace=wrap;html=1;aspect=fixed;" vertex="1" parent="1">
          <mxGeometry x="-660" y="400" width="30" height="30" as="geometry" />
        </mxCell>
        <mxCell id="y4AhJnp8irNAr9wBN3HV-264" value="(" style="ellipse;whiteSpace=wrap;html=1;aspect=fixed;" vertex="1" parent="1">
          <mxGeometry x="-700" y="400" width="30" height="30" as="geometry" />
        </mxCell>
        <mxCell id="y4AhJnp8irNAr9wBN3HV-265" value="l" style="ellipse;whiteSpace=wrap;html=1;aspect=fixed;" vertex="1" parent="1">
          <mxGeometry x="-640" y="440" width="30" height="30" as="geometry" />
        </mxCell>
        <mxCell id="y4AhJnp8irNAr9wBN3HV-266" value="b" style="ellipse;whiteSpace=wrap;html=1;aspect=fixed;" vertex="1" parent="1">
          <mxGeometry x="-680" y="440" width="30" height="30" as="geometry" />
        </mxCell>
        <mxCell id="y4AhJnp8irNAr9wBN3HV-267" value="i" style="ellipse;whiteSpace=wrap;html=1;aspect=fixed;" vertex="1" parent="1">
          <mxGeometry x="-720" y="440" width="30" height="30" as="geometry" />
        </mxCell>
        <mxCell id="y4AhJnp8irNAr9wBN3HV-268" value="" style="endArrow=none;html=1;rounded=0;entryX=0.5;entryY=1;entryDx=0;entryDy=0;exitX=0.5;exitY=0;exitDx=0;exitDy=0;" edge="1" parent="1" source="y4AhJnp8irNAr9wBN3HV-267" target="y4AhJnp8irNAr9wBN3HV-263">
          <mxGeometry width="50" height="50" relative="1" as="geometry">
            <mxPoint x="-820" y="300" as="sourcePoint" />
            <mxPoint x="-770" y="250" as="targetPoint" />
          </mxGeometry>
        </mxCell>
        <mxCell id="y4AhJnp8irNAr9wBN3HV-269" value="" style="endArrow=none;html=1;rounded=0;entryX=0.5;entryY=1;entryDx=0;entryDy=0;exitX=0.5;exitY=0;exitDx=0;exitDy=0;" edge="1" parent="1" source="y4AhJnp8irNAr9wBN3HV-266" target="y4AhJnp8irNAr9wBN3HV-263">
          <mxGeometry width="50" height="50" relative="1" as="geometry">
            <mxPoint x="-820" y="300" as="sourcePoint" />
            <mxPoint x="-770" y="250" as="targetPoint" />
          </mxGeometry>
        </mxCell>
        <mxCell id="y4AhJnp8irNAr9wBN3HV-270" value="" style="endArrow=none;html=1;rounded=0;entryX=0.5;entryY=1;entryDx=0;entryDy=0;exitX=0.5;exitY=0;exitDx=0;exitDy=0;" edge="1" parent="1" source="y4AhJnp8irNAr9wBN3HV-265" target="y4AhJnp8irNAr9wBN3HV-263">
          <mxGeometry width="50" height="50" relative="1" as="geometry">
            <mxPoint x="-820" y="300" as="sourcePoint" />
            <mxPoint x="-770" y="250" as="targetPoint" />
          </mxGeometry>
        </mxCell>
        <mxCell id="y4AhJnp8irNAr9wBN3HV-287" value="N" style="ellipse;whiteSpace=wrap;html=1;aspect=fixed;" vertex="1" parent="1">
          <mxGeometry x="-540" y="400" width="30" height="30" as="geometry" />
        </mxCell>
        <mxCell id="y4AhJnp8irNAr9wBN3HV-288" value="]" style="ellipse;whiteSpace=wrap;html=1;aspect=fixed;" vertex="1" parent="1">
          <mxGeometry x="-560" y="490" width="30" height="30" as="geometry" />
        </mxCell>
        <mxCell id="y4AhJnp8irNAr9wBN3HV-289" value="N" style="ellipse;whiteSpace=wrap;html=1;aspect=fixed;" vertex="1" parent="1">
          <mxGeometry x="-400" y="490" width="30" height="30" as="geometry" />
        </mxCell>
        <mxCell id="y4AhJnp8irNAr9wBN3HV-290" value="i" style="ellipse;whiteSpace=wrap;html=1;aspect=fixed;" vertex="1" parent="1">
          <mxGeometry x="-600" y="490" width="30" height="30" as="geometry" />
        </mxCell>
        <mxCell id="y4AhJnp8irNAr9wBN3HV-291" value="[" style="ellipse;whiteSpace=wrap;html=1;aspect=fixed;" vertex="1" parent="1">
          <mxGeometry x="-640" y="490" width="30" height="30" as="geometry" />
        </mxCell>
        <mxCell id="y4AhJnp8irNAr9wBN3HV-292" value="i" style="ellipse;whiteSpace=wrap;html=1;aspect=fixed;" vertex="1" parent="1">
          <mxGeometry x="-680" y="490" width="30" height="30" as="geometry" />
        </mxCell>
        <mxCell id="y4AhJnp8irNAr9wBN3HV-293" value=";" style="ellipse;whiteSpace=wrap;html=1;aspect=fixed;" vertex="1" parent="1">
          <mxGeometry x="-440" y="490" width="30" height="30" as="geometry" />
        </mxCell>
        <mxCell id="y4AhJnp8irNAr9wBN3HV-294" value="E" style="ellipse;whiteSpace=wrap;html=1;aspect=fixed;" vertex="1" parent="1">
          <mxGeometry x="-480" y="490" width="30" height="30" as="geometry" />
        </mxCell>
        <mxCell id="y4AhJnp8irNAr9wBN3HV-295" value="v" style="ellipse;whiteSpace=wrap;html=1;aspect=fixed;" vertex="1" parent="1">
          <mxGeometry x="-520" y="490" width="30" height="30" as="geometry" />
        </mxCell>
        <mxCell id="y4AhJnp8irNAr9wBN3HV-296" value="" style="endArrow=none;html=1;rounded=0;entryX=0.5;entryY=1;entryDx=0;entryDy=0;exitX=0.5;exitY=0;exitDx=0;exitDy=0;" edge="1" parent="1" source="y4AhJnp8irNAr9wBN3HV-292" target="y4AhJnp8irNAr9wBN3HV-287">
          <mxGeometry width="50" height="50" relative="1" as="geometry">
            <mxPoint x="-360" y="650" as="sourcePoint" />
            <mxPoint x="-310" y="600" as="targetPoint" />
          </mxGeometry>
        </mxCell>
        <mxCell id="y4AhJnp8irNAr9wBN3HV-297" value="" style="endArrow=none;html=1;rounded=0;entryX=0.5;entryY=1;entryDx=0;entryDy=0;exitX=0.5;exitY=0;exitDx=0;exitDy=0;" edge="1" parent="1" source="y4AhJnp8irNAr9wBN3HV-291" target="y4AhJnp8irNAr9wBN3HV-287">
          <mxGeometry width="50" height="50" relative="1" as="geometry">
            <mxPoint x="-360" y="650" as="sourcePoint" />
            <mxPoint x="-310" y="600" as="targetPoint" />
          </mxGeometry>
        </mxCell>
        <mxCell id="y4AhJnp8irNAr9wBN3HV-298" value="" style="endArrow=none;html=1;rounded=0;entryX=0.5;entryY=1;entryDx=0;entryDy=0;exitX=0.5;exitY=0;exitDx=0;exitDy=0;" edge="1" parent="1" source="y4AhJnp8irNAr9wBN3HV-290" target="y4AhJnp8irNAr9wBN3HV-287">
          <mxGeometry width="50" height="50" relative="1" as="geometry">
            <mxPoint x="-360" y="650" as="sourcePoint" />
            <mxPoint x="-310" y="600" as="targetPoint" />
          </mxGeometry>
        </mxCell>
        <mxCell id="y4AhJnp8irNAr9wBN3HV-299" value="" style="endArrow=none;html=1;rounded=0;entryX=0.5;entryY=1;entryDx=0;entryDy=0;exitX=0.5;exitY=0;exitDx=0;exitDy=0;" edge="1" parent="1" source="y4AhJnp8irNAr9wBN3HV-288" target="y4AhJnp8irNAr9wBN3HV-287">
          <mxGeometry width="50" height="50" relative="1" as="geometry">
            <mxPoint x="-360" y="650" as="sourcePoint" />
            <mxPoint x="-310" y="600" as="targetPoint" />
          </mxGeometry>
        </mxCell>
        <mxCell id="y4AhJnp8irNAr9wBN3HV-300" value="" style="endArrow=none;html=1;rounded=0;entryX=0.5;entryY=1;entryDx=0;entryDy=0;exitX=0.5;exitY=0;exitDx=0;exitDy=0;" edge="1" parent="1" source="y4AhJnp8irNAr9wBN3HV-295" target="y4AhJnp8irNAr9wBN3HV-287">
          <mxGeometry width="50" height="50" relative="1" as="geometry">
            <mxPoint x="-360" y="650" as="sourcePoint" />
            <mxPoint x="-310" y="600" as="targetPoint" />
          </mxGeometry>
        </mxCell>
        <mxCell id="y4AhJnp8irNAr9wBN3HV-301" value="" style="endArrow=none;html=1;rounded=0;entryX=0.5;entryY=1;entryDx=0;entryDy=0;exitX=0.5;exitY=0;exitDx=0;exitDy=0;" edge="1" parent="1" source="y4AhJnp8irNAr9wBN3HV-294" target="y4AhJnp8irNAr9wBN3HV-287">
          <mxGeometry width="50" height="50" relative="1" as="geometry">
            <mxPoint x="-360" y="650" as="sourcePoint" />
            <mxPoint x="-390" y="580" as="targetPoint" />
          </mxGeometry>
        </mxCell>
        <mxCell id="y4AhJnp8irNAr9wBN3HV-302" value="" style="endArrow=none;html=1;rounded=0;entryX=0.5;entryY=1;entryDx=0;entryDy=0;exitX=0.5;exitY=0;exitDx=0;exitDy=0;" edge="1" parent="1" source="y4AhJnp8irNAr9wBN3HV-293" target="y4AhJnp8irNAr9wBN3HV-287">
          <mxGeometry width="50" height="50" relative="1" as="geometry">
            <mxPoint x="-360" y="650" as="sourcePoint" />
            <mxPoint x="-310" y="600" as="targetPoint" />
          </mxGeometry>
        </mxCell>
        <mxCell id="y4AhJnp8irNAr9wBN3HV-303" value="" style="endArrow=none;html=1;rounded=0;entryX=0.5;entryY=1;entryDx=0;entryDy=0;exitX=0.5;exitY=0;exitDx=0;exitDy=0;" edge="1" parent="1" source="y4AhJnp8irNAr9wBN3HV-289" target="y4AhJnp8irNAr9wBN3HV-287">
          <mxGeometry width="50" height="50" relative="1" as="geometry">
            <mxPoint x="-360" y="650" as="sourcePoint" />
            <mxPoint x="-310" y="600" as="targetPoint" />
          </mxGeometry>
        </mxCell>
        <mxCell id="y4AhJnp8irNAr9wBN3HV-304" value="E" style="ellipse;whiteSpace=wrap;html=1;aspect=fixed;" vertex="1" parent="1">
          <mxGeometry x="290" y="420" width="30" height="30" as="geometry" />
        </mxCell>
        <mxCell id="y4AhJnp8irNAr9wBN3HV-305" value="i" style="ellipse;whiteSpace=wrap;html=1;aspect=fixed;" vertex="1" parent="1">
          <mxGeometry x="270" y="460" width="30" height="30" as="geometry" />
        </mxCell>
        <mxCell id="y4AhJnp8irNAr9wBN3HV-306" value="E" style="ellipse;whiteSpace=wrap;html=1;aspect=fixed;" vertex="1" parent="1">
          <mxGeometry x="-480" y="490" width="30" height="30" as="geometry" />
        </mxCell>
        <mxCell id="y4AhJnp8irNAr9wBN3HV-307" value="i" style="ellipse;whiteSpace=wrap;html=1;aspect=fixed;" vertex="1" parent="1">
          <mxGeometry x="-560" y="530" width="30" height="30" as="geometry" />
        </mxCell>
        <mxCell id="y4AhJnp8irNAr9wBN3HV-308" value="" style="endArrow=none;html=1;rounded=0;entryX=0.5;entryY=1;entryDx=0;entryDy=0;exitX=0.5;exitY=0;exitDx=0;exitDy=0;" edge="1" parent="1" source="y4AhJnp8irNAr9wBN3HV-307" target="y4AhJnp8irNAr9wBN3HV-306">
          <mxGeometry width="50" height="50" relative="1" as="geometry">
            <mxPoint x="-550" y="460" as="sourcePoint" />
            <mxPoint x="-500" y="410" as="targetPoint" />
          </mxGeometry>
        </mxCell>
        <mxCell id="y4AhJnp8irNAr9wBN3HV-320" value="N" style="ellipse;whiteSpace=wrap;html=1;aspect=fixed;" vertex="1" parent="1">
          <mxGeometry x="-400" y="490" width="30" height="30" as="geometry" />
        </mxCell>
        <mxCell id="y4AhJnp8irNAr9wBN3HV-321" value="[" style="ellipse;whiteSpace=wrap;html=1;aspect=fixed;" vertex="1" parent="1">
          <mxGeometry x="-580" y="590" width="30" height="30" as="geometry" />
        </mxCell>
        <mxCell id="y4AhJnp8irNAr9wBN3HV-322" value="N" style="ellipse;whiteSpace=wrap;html=1;aspect=fixed;" vertex="1" parent="1">
          <mxGeometry x="-420" y="590" width="30" height="30" as="geometry" />
        </mxCell>
        <mxCell id="y4AhJnp8irNAr9wBN3HV-323" value="i" style="ellipse;whiteSpace=wrap;html=1;aspect=fixed;" vertex="1" parent="1">
          <mxGeometry x="-620" y="590" width="30" height="30" as="geometry" />
        </mxCell>
        <mxCell id="y4AhJnp8irNAr9wBN3HV-324" value="p" style="ellipse;whiteSpace=wrap;html=1;aspect=fixed;" vertex="1" parent="1">
          <mxGeometry x="-660" y="590" width="30" height="30" as="geometry" />
        </mxCell>
        <mxCell id="y4AhJnp8irNAr9wBN3HV-325" value=";" style="ellipse;whiteSpace=wrap;html=1;aspect=fixed;" vertex="1" parent="1">
          <mxGeometry x="-460" y="590" width="30" height="30" as="geometry" />
        </mxCell>
        <mxCell id="y4AhJnp8irNAr9wBN3HV-326" value="E" style="ellipse;whiteSpace=wrap;html=1;aspect=fixed;" vertex="1" parent="1">
          <mxGeometry x="-500" y="590" width="30" height="30" as="geometry" />
        </mxCell>
        <mxCell id="y4AhJnp8irNAr9wBN3HV-327" value="i" style="ellipse;whiteSpace=wrap;html=1;aspect=fixed;" vertex="1" parent="1">
          <mxGeometry x="-540" y="590" width="30" height="30" as="geometry" />
        </mxCell>
        <mxCell id="y4AhJnp8irNAr9wBN3HV-329" value="" style="endArrow=none;html=1;rounded=0;entryX=0.5;entryY=1;entryDx=0;entryDy=0;exitX=0.5;exitY=0;exitDx=0;exitDy=0;" edge="1" parent="1" source="y4AhJnp8irNAr9wBN3HV-324" target="y4AhJnp8irNAr9wBN3HV-320">
          <mxGeometry width="50" height="50" relative="1" as="geometry">
            <mxPoint x="-540" y="820" as="sourcePoint" />
            <mxPoint x="-490" y="770" as="targetPoint" />
          </mxGeometry>
        </mxCell>
        <mxCell id="y4AhJnp8irNAr9wBN3HV-330" value="" style="endArrow=none;html=1;rounded=0;entryX=0.5;entryY=1;entryDx=0;entryDy=0;exitX=0.5;exitY=0;exitDx=0;exitDy=0;" edge="1" parent="1" source="y4AhJnp8irNAr9wBN3HV-323" target="y4AhJnp8irNAr9wBN3HV-320">
          <mxGeometry width="50" height="50" relative="1" as="geometry">
            <mxPoint x="-540" y="820" as="sourcePoint" />
            <mxPoint x="-490" y="770" as="targetPoint" />
          </mxGeometry>
        </mxCell>
        <mxCell id="y4AhJnp8irNAr9wBN3HV-331" value="" style="endArrow=none;html=1;rounded=0;entryX=0.5;entryY=1;entryDx=0;entryDy=0;exitX=0.5;exitY=0;exitDx=0;exitDy=0;" edge="1" parent="1" source="y4AhJnp8irNAr9wBN3HV-321" target="y4AhJnp8irNAr9wBN3HV-320">
          <mxGeometry width="50" height="50" relative="1" as="geometry">
            <mxPoint x="-540" y="820" as="sourcePoint" />
            <mxPoint x="-490" y="770" as="targetPoint" />
          </mxGeometry>
        </mxCell>
        <mxCell id="y4AhJnp8irNAr9wBN3HV-332" value="" style="endArrow=none;html=1;rounded=0;entryX=0.5;entryY=1;entryDx=0;entryDy=0;exitX=0.5;exitY=0;exitDx=0;exitDy=0;" edge="1" parent="1" source="y4AhJnp8irNAr9wBN3HV-327" target="y4AhJnp8irNAr9wBN3HV-320">
          <mxGeometry width="50" height="50" relative="1" as="geometry">
            <mxPoint x="-540" y="820" as="sourcePoint" />
            <mxPoint x="-490" y="770" as="targetPoint" />
          </mxGeometry>
        </mxCell>
        <mxCell id="y4AhJnp8irNAr9wBN3HV-333" value="" style="endArrow=none;html=1;rounded=0;entryX=0.5;entryY=1;entryDx=0;entryDy=0;exitX=0.5;exitY=0;exitDx=0;exitDy=0;" edge="1" parent="1" source="y4AhJnp8irNAr9wBN3HV-326" target="y4AhJnp8irNAr9wBN3HV-320">
          <mxGeometry width="50" height="50" relative="1" as="geometry">
            <mxPoint x="-540" y="820" as="sourcePoint" />
            <mxPoint x="-570" y="750" as="targetPoint" />
          </mxGeometry>
        </mxCell>
        <mxCell id="y4AhJnp8irNAr9wBN3HV-334" value="" style="endArrow=none;html=1;rounded=0;entryX=0.5;entryY=1;entryDx=0;entryDy=0;exitX=0.5;exitY=0;exitDx=0;exitDy=0;" edge="1" parent="1" source="y4AhJnp8irNAr9wBN3HV-325" target="y4AhJnp8irNAr9wBN3HV-320">
          <mxGeometry width="50" height="50" relative="1" as="geometry">
            <mxPoint x="-540" y="820" as="sourcePoint" />
            <mxPoint x="-490" y="770" as="targetPoint" />
          </mxGeometry>
        </mxCell>
        <mxCell id="y4AhJnp8irNAr9wBN3HV-335" value="" style="endArrow=none;html=1;rounded=0;entryX=0.5;entryY=1;entryDx=0;entryDy=0;exitX=0.5;exitY=0;exitDx=0;exitDy=0;" edge="1" parent="1" source="y4AhJnp8irNAr9wBN3HV-322" target="y4AhJnp8irNAr9wBN3HV-320">
          <mxGeometry width="50" height="50" relative="1" as="geometry">
            <mxPoint x="-540" y="820" as="sourcePoint" />
            <mxPoint x="-490" y="770" as="targetPoint" />
          </mxGeometry>
        </mxCell>
        <mxCell id="y4AhJnp8irNAr9wBN3HV-336" value="]" style="ellipse;whiteSpace=wrap;html=1;aspect=fixed;" vertex="1" parent="1">
          <mxGeometry x="-500" y="590" width="30" height="30" as="geometry" />
        </mxCell>
        <mxCell id="y4AhJnp8irNAr9wBN3HV-342" value="N" style="ellipse;whiteSpace=wrap;html=1;aspect=fixed;" vertex="1" parent="1">
          <mxGeometry x="-420" y="590" width="30" height="30" as="geometry" />
        </mxCell>
        <mxCell id="y4AhJnp8irNAr9wBN3HV-343" value="i" style="ellipse;whiteSpace=wrap;html=1;aspect=fixed;" vertex="1" parent="1">
          <mxGeometry x="-550" y="640" width="30" height="30" as="geometry" />
        </mxCell>
        <mxCell id="y4AhJnp8irNAr9wBN3HV-344" value="v" style="ellipse;whiteSpace=wrap;html=1;aspect=fixed;" vertex="1" parent="1">
          <mxGeometry x="-510" y="640" width="30" height="30" as="geometry" />
        </mxCell>
        <mxCell id="y4AhJnp8irNAr9wBN3HV-345" value="E" style="ellipse;whiteSpace=wrap;html=1;aspect=fixed;" vertex="1" parent="1">
          <mxGeometry x="-470" y="640" width="30" height="30" as="geometry" />
        </mxCell>
        <mxCell id="y4AhJnp8irNAr9wBN3HV-346" value="" style="endArrow=none;html=1;rounded=0;entryX=0.5;entryY=1;entryDx=0;entryDy=0;exitX=0.5;exitY=0;exitDx=0;exitDy=0;" edge="1" parent="1" source="y4AhJnp8irNAr9wBN3HV-343" target="y4AhJnp8irNAr9wBN3HV-342">
          <mxGeometry width="50" height="50" relative="1" as="geometry">
            <mxPoint x="-430" y="690" as="sourcePoint" />
            <mxPoint x="-380" y="640" as="targetPoint" />
          </mxGeometry>
        </mxCell>
        <mxCell id="y4AhJnp8irNAr9wBN3HV-347" value="" style="endArrow=none;html=1;rounded=0;entryX=0.5;entryY=1;entryDx=0;entryDy=0;exitX=0.5;exitY=0;exitDx=0;exitDy=0;" edge="1" parent="1" source="y4AhJnp8irNAr9wBN3HV-344" target="y4AhJnp8irNAr9wBN3HV-342">
          <mxGeometry width="50" height="50" relative="1" as="geometry">
            <mxPoint x="-510" y="690" as="sourcePoint" />
            <mxPoint x="-460" y="640" as="targetPoint" />
          </mxGeometry>
        </mxCell>
        <mxCell id="y4AhJnp8irNAr9wBN3HV-348" value="" style="endArrow=none;html=1;rounded=0;entryX=0.5;entryY=1;entryDx=0;entryDy=0;exitX=0.5;exitY=0;exitDx=0;exitDy=0;" edge="1" parent="1" source="y4AhJnp8irNAr9wBN3HV-345" target="y4AhJnp8irNAr9wBN3HV-342">
          <mxGeometry width="50" height="50" relative="1" as="geometry">
            <mxPoint x="-510" y="690" as="sourcePoint" />
            <mxPoint x="-460" y="640" as="targetPoint" />
          </mxGeometry>
        </mxCell>
        <mxCell id="y4AhJnp8irNAr9wBN3HV-349" value="i" style="ellipse;whiteSpace=wrap;html=1;aspect=fixed;" vertex="1" parent="1">
          <mxGeometry x="-550" y="690" width="30" height="30" as="geometry" />
        </mxCell>
        <mxCell id="y4AhJnp8irNAr9wBN3HV-350" value="v" style="ellipse;whiteSpace=wrap;html=1;aspect=fixed;" vertex="1" parent="1">
          <mxGeometry x="-510" y="690" width="30" height="30" as="geometry" />
        </mxCell>
        <mxCell id="y4AhJnp8irNAr9wBN3HV-351" value="E" style="ellipse;whiteSpace=wrap;html=1;aspect=fixed;" vertex="1" parent="1">
          <mxGeometry x="-470" y="690" width="30" height="30" as="geometry" />
        </mxCell>
        <mxCell id="y4AhJnp8irNAr9wBN3HV-352" value="v" style="ellipse;whiteSpace=wrap;html=1;aspect=fixed;" vertex="1" parent="1">
          <mxGeometry x="-530" y="740" width="30" height="30" as="geometry" />
        </mxCell>
        <mxCell id="y4AhJnp8irNAr9wBN3HV-353" value="E" style="ellipse;whiteSpace=wrap;html=1;aspect=fixed;" vertex="1" parent="1">
          <mxGeometry x="-490" y="740" width="30" height="30" as="geometry" />
        </mxCell>
        <mxCell id="y4AhJnp8irNAr9wBN3HV-354" value="l" style="ellipse;whiteSpace=wrap;html=1;aspect=fixed;" vertex="1" parent="1">
          <mxGeometry x="-520" y="780" width="30" height="30" as="geometry" />
        </mxCell>
        <mxCell id="y4AhJnp8irNAr9wBN3HV-355" value="" style="endArrow=none;html=1;rounded=0;entryX=0.5;entryY=0;entryDx=0;entryDy=0;exitX=0.5;exitY=1;exitDx=0;exitDy=0;" edge="1" parent="1" source="y4AhJnp8irNAr9wBN3HV-353" target="y4AhJnp8irNAr9wBN3HV-354">
          <mxGeometry width="50" height="50" relative="1" as="geometry">
            <mxPoint x="-400" y="840" as="sourcePoint" />
            <mxPoint x="-350" y="790" as="targetPoint" />
          </mxGeometry>
        </mxCell>
        <mxCell id="y4AhJnp8irNAr9wBN3HV-356" value="" style="endArrow=none;html=1;rounded=0;entryX=0.5;entryY=1;entryDx=0;entryDy=0;exitX=0.5;exitY=0;exitDx=0;exitDy=0;" edge="1" parent="1" source="y4AhJnp8irNAr9wBN3HV-352" target="y4AhJnp8irNAr9wBN3HV-351">
          <mxGeometry width="50" height="50" relative="1" as="geometry">
            <mxPoint x="-400" y="840" as="sourcePoint" />
            <mxPoint x="-350" y="790" as="targetPoint" />
          </mxGeometry>
        </mxCell>
        <mxCell id="y4AhJnp8irNAr9wBN3HV-357" value="" style="endArrow=none;html=1;rounded=0;entryX=0.5;entryY=1;entryDx=0;entryDy=0;exitX=0.5;exitY=0;exitDx=0;exitDy=0;" edge="1" parent="1" source="y4AhJnp8irNAr9wBN3HV-353" target="y4AhJnp8irNAr9wBN3HV-351">
          <mxGeometry width="50" height="50" relative="1" as="geometry">
            <mxPoint x="-400" y="840" as="sourcePoint" />
            <mxPoint x="-350" y="790" as="targetPoint" />
          </mxGeometry>
        </mxCell>
        <mxCell id="y4AhJnp8irNAr9wBN3HV-358" value="" style="endArrow=none;html=1;rounded=0;entryX=0.5;entryY=1;entryDx=0;entryDy=0;exitX=0.5;exitY=0;exitDx=0;exitDy=0;" edge="1" parent="1" source="y4AhJnp8irNAr9wBN3HV-351" target="y4AhJnp8irNAr9wBN3HV-345">
          <mxGeometry width="50" height="50" relative="1" as="geometry">
            <mxPoint x="-400" y="840" as="sourcePoint" />
            <mxPoint x="-350" y="790" as="targetPoint" />
          </mxGeometry>
        </mxCell>
        <mxCell id="y4AhJnp8irNAr9wBN3HV-359" value="" style="endArrow=none;html=1;rounded=0;entryX=0.5;entryY=1;entryDx=0;entryDy=0;exitX=0.5;exitY=0;exitDx=0;exitDy=0;" edge="1" parent="1" source="y4AhJnp8irNAr9wBN3HV-350" target="y4AhJnp8irNAr9wBN3HV-345">
          <mxGeometry width="50" height="50" relative="1" as="geometry">
            <mxPoint x="-400" y="840" as="sourcePoint" />
            <mxPoint x="-350" y="790" as="targetPoint" />
          </mxGeometry>
        </mxCell>
        <mxCell id="y4AhJnp8irNAr9wBN3HV-360" value="" style="endArrow=none;html=1;rounded=0;entryX=0.5;entryY=1;entryDx=0;entryDy=0;exitX=0.5;exitY=0;exitDx=0;exitDy=0;" edge="1" parent="1" source="y4AhJnp8irNAr9wBN3HV-349" target="y4AhJnp8irNAr9wBN3HV-345">
          <mxGeometry width="50" height="50" relative="1" as="geometry">
            <mxPoint x="-400" y="840" as="sourcePoint" />
            <mxPoint x="-350" y="790" as="targetPoint" />
          </mxGeometry>
        </mxCell>
        <mxCell id="y4AhJnp8irNAr9wBN3HV-361" value="N" style="ellipse;whiteSpace=wrap;html=1;aspect=fixed;" vertex="1" parent="1">
          <mxGeometry x="-320" y="270" width="30" height="30" as="geometry" />
        </mxCell>
        <mxCell id="y4AhJnp8irNAr9wBN3HV-362" value="N" style="ellipse;whiteSpace=wrap;html=1;aspect=fixed;" vertex="1" parent="1">
          <mxGeometry x="-420" y="230" width="30" height="30" as="geometry" />
        </mxCell>
        <mxCell id="y4AhJnp8irNAr9wBN3HV-363" value="l" style="ellipse;whiteSpace=wrap;html=1;aspect=fixed;" vertex="1" parent="1">
          <mxGeometry x="-400" y="270" width="30" height="30" as="geometry" />
        </mxCell>
        <mxCell id="y4AhJnp8irNAr9wBN3HV-364" value="p" style="ellipse;whiteSpace=wrap;html=1;aspect=fixed;" vertex="1" parent="1">
          <mxGeometry x="-440" y="270" width="30" height="30" as="geometry" />
        </mxCell>
        <mxCell id="y4AhJnp8irNAr9wBN3HV-365" value="" style="endArrow=none;html=1;rounded=0;entryX=0.5;entryY=1;entryDx=0;entryDy=0;exitX=0.5;exitY=0;exitDx=0;exitDy=0;" edge="1" parent="1" source="y4AhJnp8irNAr9wBN3HV-364" target="y4AhJnp8irNAr9wBN3HV-362">
          <mxGeometry width="50" height="50" relative="1" as="geometry">
            <mxPoint x="-600" y="200" as="sourcePoint" />
            <mxPoint x="-550" y="150" as="targetPoint" />
          </mxGeometry>
        </mxCell>
        <mxCell id="y4AhJnp8irNAr9wBN3HV-366" value="" style="endArrow=none;html=1;rounded=0;entryX=0.5;entryY=1;entryDx=0;entryDy=0;exitX=0.5;exitY=0;exitDx=0;exitDy=0;" edge="1" parent="1" source="y4AhJnp8irNAr9wBN3HV-363" target="y4AhJnp8irNAr9wBN3HV-362">
          <mxGeometry width="50" height="50" relative="1" as="geometry">
            <mxPoint x="-600" y="510" as="sourcePoint" />
            <mxPoint x="-550" y="460" as="targetPoint" />
          </mxGeometry>
        </mxCell>
        <mxCell id="y4AhJnp8irNAr9wBN3HV-367" value=";" style="ellipse;whiteSpace=wrap;html=1;aspect=fixed;" vertex="1" parent="1">
          <mxGeometry x="-360" y="270" width="30" height="30" as="geometry" />
        </mxCell>
        <mxCell id="y4AhJnp8irNAr9wBN3HV-368" value="" style="endArrow=none;html=1;rounded=0;entryX=0.5;entryY=1;entryDx=0;entryDy=0;exitX=0.5;exitY=0;exitDx=0;exitDy=0;" edge="1" parent="1" source="y4AhJnp8irNAr9wBN3HV-367" target="y4AhJnp8irNAr9wBN3HV-362">
          <mxGeometry width="50" height="50" relative="1" as="geometry">
            <mxPoint x="-600" y="510" as="sourcePoint" />
            <mxPoint x="-550" y="460" as="targetPoint" />
          </mxGeometry>
        </mxCell>
        <mxCell id="y4AhJnp8irNAr9wBN3HV-369" value="" style="endArrow=none;html=1;rounded=0;entryX=0.5;entryY=1;entryDx=0;entryDy=0;exitX=0.5;exitY=0;exitDx=0;exitDy=0;" edge="1" parent="1" source="y4AhJnp8irNAr9wBN3HV-361" target="y4AhJnp8irNAr9wBN3HV-362">
          <mxGeometry width="50" height="50" relative="1" as="geometry">
            <mxPoint x="-360" y="460" as="sourcePoint" />
            <mxPoint x="-310" y="410" as="targetPoint" />
          </mxGeometry>
        </mxCell>
        <mxCell id="y4AhJnp8irNAr9wBN3HV-380" value="N" style="ellipse;whiteSpace=wrap;html=1;aspect=fixed;" vertex="1" parent="1">
          <mxGeometry x="-320" y="270" width="30" height="30" as="geometry" />
        </mxCell>
        <mxCell id="y4AhJnp8irNAr9wBN3HV-381" value="[" style="ellipse;whiteSpace=wrap;html=1;aspect=fixed;" vertex="1" parent="1">
          <mxGeometry x="-270" y="510" width="30" height="30" as="geometry" />
        </mxCell>
        <mxCell id="y4AhJnp8irNAr9wBN3HV-382" value="N" style="ellipse;whiteSpace=wrap;html=1;aspect=fixed;" vertex="1" parent="1">
          <mxGeometry x="-110" y="510" width="30" height="30" as="geometry" />
        </mxCell>
        <mxCell id="y4AhJnp8irNAr9wBN3HV-383" value="i" style="ellipse;whiteSpace=wrap;html=1;aspect=fixed;" vertex="1" parent="1">
          <mxGeometry x="-310" y="510" width="30" height="30" as="geometry" />
        </mxCell>
        <mxCell id="y4AhJnp8irNAr9wBN3HV-384" value="p" style="ellipse;whiteSpace=wrap;html=1;aspect=fixed;" vertex="1" parent="1">
          <mxGeometry x="-350" y="510" width="30" height="30" as="geometry" />
        </mxCell>
        <mxCell id="y4AhJnp8irNAr9wBN3HV-385" value=";" style="ellipse;whiteSpace=wrap;html=1;aspect=fixed;" vertex="1" parent="1">
          <mxGeometry x="-150" y="510" width="30" height="30" as="geometry" />
        </mxCell>
        <mxCell id="y4AhJnp8irNAr9wBN3HV-386" value="E" style="ellipse;whiteSpace=wrap;html=1;aspect=fixed;" vertex="1" parent="1">
          <mxGeometry x="-190" y="510" width="30" height="30" as="geometry" />
        </mxCell>
        <mxCell id="y4AhJnp8irNAr9wBN3HV-387" value="i" style="ellipse;whiteSpace=wrap;html=1;aspect=fixed;" vertex="1" parent="1">
          <mxGeometry x="-230" y="510" width="30" height="30" as="geometry" />
        </mxCell>
        <mxCell id="y4AhJnp8irNAr9wBN3HV-388" value="" style="endArrow=none;html=1;rounded=0;entryX=0.5;entryY=1;entryDx=0;entryDy=0;exitX=0.5;exitY=0;exitDx=0;exitDy=0;" edge="1" parent="1" source="y4AhJnp8irNAr9wBN3HV-384" target="y4AhJnp8irNAr9wBN3HV-380">
          <mxGeometry width="50" height="50" relative="1" as="geometry">
            <mxPoint x="-170" y="900" as="sourcePoint" />
            <mxPoint x="-120" y="850" as="targetPoint" />
          </mxGeometry>
        </mxCell>
        <mxCell id="y4AhJnp8irNAr9wBN3HV-389" value="" style="endArrow=none;html=1;rounded=0;entryX=0.5;entryY=1;entryDx=0;entryDy=0;exitX=0.5;exitY=0;exitDx=0;exitDy=0;" edge="1" parent="1" source="y4AhJnp8irNAr9wBN3HV-383" target="y4AhJnp8irNAr9wBN3HV-380">
          <mxGeometry width="50" height="50" relative="1" as="geometry">
            <mxPoint x="-170" y="900" as="sourcePoint" />
            <mxPoint x="-120" y="850" as="targetPoint" />
          </mxGeometry>
        </mxCell>
        <mxCell id="y4AhJnp8irNAr9wBN3HV-390" value="" style="endArrow=none;html=1;rounded=0;entryX=0.5;entryY=1;entryDx=0;entryDy=0;exitX=0.5;exitY=0;exitDx=0;exitDy=0;" edge="1" parent="1" source="y4AhJnp8irNAr9wBN3HV-381" target="y4AhJnp8irNAr9wBN3HV-380">
          <mxGeometry width="50" height="50" relative="1" as="geometry">
            <mxPoint x="-170" y="900" as="sourcePoint" />
            <mxPoint x="-120" y="850" as="targetPoint" />
          </mxGeometry>
        </mxCell>
        <mxCell id="y4AhJnp8irNAr9wBN3HV-391" value="" style="endArrow=none;html=1;rounded=0;entryX=0.5;entryY=1;entryDx=0;entryDy=0;exitX=0.5;exitY=0;exitDx=0;exitDy=0;" edge="1" parent="1" source="y4AhJnp8irNAr9wBN3HV-387" target="y4AhJnp8irNAr9wBN3HV-380">
          <mxGeometry width="50" height="50" relative="1" as="geometry">
            <mxPoint x="-170" y="900" as="sourcePoint" />
            <mxPoint x="-120" y="850" as="targetPoint" />
          </mxGeometry>
        </mxCell>
        <mxCell id="y4AhJnp8irNAr9wBN3HV-392" value="" style="endArrow=none;html=1;rounded=0;entryX=0.5;entryY=1;entryDx=0;entryDy=0;exitX=0.5;exitY=0;exitDx=0;exitDy=0;" edge="1" parent="1" source="y4AhJnp8irNAr9wBN3HV-386" target="y4AhJnp8irNAr9wBN3HV-380">
          <mxGeometry width="50" height="50" relative="1" as="geometry">
            <mxPoint x="-170" y="900" as="sourcePoint" />
            <mxPoint x="-200" y="830" as="targetPoint" />
          </mxGeometry>
        </mxCell>
        <mxCell id="y4AhJnp8irNAr9wBN3HV-393" value="" style="endArrow=none;html=1;rounded=0;entryX=0.5;entryY=1;entryDx=0;entryDy=0;exitX=0.5;exitY=0;exitDx=0;exitDy=0;" edge="1" parent="1" source="y4AhJnp8irNAr9wBN3HV-385" target="y4AhJnp8irNAr9wBN3HV-380">
          <mxGeometry width="50" height="50" relative="1" as="geometry">
            <mxPoint x="-170" y="900" as="sourcePoint" />
            <mxPoint x="-120" y="850" as="targetPoint" />
          </mxGeometry>
        </mxCell>
        <mxCell id="y4AhJnp8irNAr9wBN3HV-394" value="" style="endArrow=none;html=1;rounded=0;entryX=0.5;entryY=1;entryDx=0;entryDy=0;exitX=0.5;exitY=0;exitDx=0;exitDy=0;" edge="1" parent="1" source="y4AhJnp8irNAr9wBN3HV-382" target="y4AhJnp8irNAr9wBN3HV-380">
          <mxGeometry width="50" height="50" relative="1" as="geometry">
            <mxPoint x="-170" y="900" as="sourcePoint" />
            <mxPoint x="-120" y="850" as="targetPoint" />
          </mxGeometry>
        </mxCell>
        <mxCell id="y4AhJnp8irNAr9wBN3HV-395" value="]" style="ellipse;whiteSpace=wrap;html=1;aspect=fixed;" vertex="1" parent="1">
          <mxGeometry x="-190" y="510" width="30" height="30" as="geometry" />
        </mxCell>
        <mxCell id="y4AhJnp8irNAr9wBN3HV-396" value="N" style="ellipse;whiteSpace=wrap;html=1;aspect=fixed;" vertex="1" parent="1">
          <mxGeometry x="-110" y="510" width="30" height="30" as="geometry" />
        </mxCell>
        <mxCell id="y4AhJnp8irNAr9wBN3HV-424" value="N" style="ellipse;whiteSpace=wrap;html=1;aspect=fixed;" vertex="1" parent="1">
          <mxGeometry x="-110" y="510" width="30" height="30" as="geometry" />
        </mxCell>
        <mxCell id="y4AhJnp8irNAr9wBN3HV-429" value="N" style="ellipse;whiteSpace=wrap;html=1;aspect=fixed;" vertex="1" parent="1">
          <mxGeometry x="-110" y="510" width="30" height="30" as="geometry" />
        </mxCell>
        <mxCell id="y4AhJnp8irNAr9wBN3HV-430" value="i" style="ellipse;whiteSpace=wrap;html=1;aspect=fixed;" vertex="1" parent="1">
          <mxGeometry x="-240" y="560" width="30" height="30" as="geometry" />
        </mxCell>
        <mxCell id="y4AhJnp8irNAr9wBN3HV-431" value="v" style="ellipse;whiteSpace=wrap;html=1;aspect=fixed;" vertex="1" parent="1">
          <mxGeometry x="-200" y="560" width="30" height="30" as="geometry" />
        </mxCell>
        <mxCell id="y4AhJnp8irNAr9wBN3HV-432" value="E" style="ellipse;whiteSpace=wrap;html=1;aspect=fixed;" vertex="1" parent="1">
          <mxGeometry x="-160" y="560" width="30" height="30" as="geometry" />
        </mxCell>
        <mxCell id="y4AhJnp8irNAr9wBN3HV-433" value="" style="endArrow=none;html=1;rounded=0;entryX=0.5;entryY=1;entryDx=0;entryDy=0;exitX=0.5;exitY=0;exitDx=0;exitDy=0;" edge="1" parent="1" source="y4AhJnp8irNAr9wBN3HV-430" target="y4AhJnp8irNAr9wBN3HV-429">
          <mxGeometry width="50" height="50" relative="1" as="geometry">
            <mxPoint x="-120" y="610" as="sourcePoint" />
            <mxPoint x="-70" y="560" as="targetPoint" />
          </mxGeometry>
        </mxCell>
        <mxCell id="y4AhJnp8irNAr9wBN3HV-434" value="" style="endArrow=none;html=1;rounded=0;entryX=0.5;entryY=1;entryDx=0;entryDy=0;exitX=0.5;exitY=0;exitDx=0;exitDy=0;" edge="1" parent="1" source="y4AhJnp8irNAr9wBN3HV-431" target="y4AhJnp8irNAr9wBN3HV-429">
          <mxGeometry width="50" height="50" relative="1" as="geometry">
            <mxPoint x="-200" y="610" as="sourcePoint" />
            <mxPoint x="-150" y="560" as="targetPoint" />
          </mxGeometry>
        </mxCell>
        <mxCell id="y4AhJnp8irNAr9wBN3HV-435" value="" style="endArrow=none;html=1;rounded=0;entryX=0.5;entryY=1;entryDx=0;entryDy=0;exitX=0.5;exitY=0;exitDx=0;exitDy=0;" edge="1" parent="1" source="y4AhJnp8irNAr9wBN3HV-432" target="y4AhJnp8irNAr9wBN3HV-429">
          <mxGeometry width="50" height="50" relative="1" as="geometry">
            <mxPoint x="-200" y="610" as="sourcePoint" />
            <mxPoint x="-150" y="560" as="targetPoint" />
          </mxGeometry>
        </mxCell>
        <mxCell id="y4AhJnp8irNAr9wBN3HV-436" value="N" style="ellipse;whiteSpace=wrap;html=1;aspect=fixed;" vertex="1" parent="1">
          <mxGeometry x="-80" y="560" width="30" height="30" as="geometry" />
        </mxCell>
        <mxCell id="y4AhJnp8irNAr9wBN3HV-437" value=";" style="ellipse;whiteSpace=wrap;html=1;aspect=fixed;" vertex="1" parent="1">
          <mxGeometry x="-120" y="560" width="30" height="30" as="geometry" />
        </mxCell>
        <mxCell id="y4AhJnp8irNAr9wBN3HV-438" value="N" style="ellipse;whiteSpace=wrap;html=1;aspect=fixed;" vertex="1" parent="1">
          <mxGeometry x="-80" y="560" width="30" height="30" as="geometry" />
        </mxCell>
        <mxCell id="y4AhJnp8irNAr9wBN3HV-440" value="" style="endArrow=none;html=1;rounded=0;entryX=0.5;entryY=1;entryDx=0;entryDy=0;exitX=0.5;exitY=0;exitDx=0;exitDy=0;" edge="1" parent="1" source="y4AhJnp8irNAr9wBN3HV-437" target="y4AhJnp8irNAr9wBN3HV-429">
          <mxGeometry width="50" height="50" relative="1" as="geometry">
            <mxPoint x="-220" y="580" as="sourcePoint" />
            <mxPoint x="-170" y="530" as="targetPoint" />
          </mxGeometry>
        </mxCell>
        <mxCell id="y4AhJnp8irNAr9wBN3HV-441" value="" style="endArrow=none;html=1;rounded=0;entryX=0.5;entryY=1;entryDx=0;entryDy=0;exitX=0.5;exitY=0;exitDx=0;exitDy=0;" edge="1" parent="1" source="y4AhJnp8irNAr9wBN3HV-438" target="y4AhJnp8irNAr9wBN3HV-429">
          <mxGeometry width="50" height="50" relative="1" as="geometry">
            <mxPoint x="-220" y="580" as="sourcePoint" />
            <mxPoint x="-170" y="530" as="targetPoint" />
          </mxGeometry>
        </mxCell>
        <mxCell id="y4AhJnp8irNAr9wBN3HV-442" value="i" style="ellipse;whiteSpace=wrap;html=1;aspect=fixed;" vertex="1" parent="1">
          <mxGeometry x="-220" y="610" width="30" height="30" as="geometry" />
        </mxCell>
        <mxCell id="y4AhJnp8irNAr9wBN3HV-443" value="(" style="ellipse;whiteSpace=wrap;html=1;aspect=fixed;" vertex="1" parent="1">
          <mxGeometry x="-180" y="610" width="30" height="30" as="geometry" />
        </mxCell>
        <mxCell id="y4AhJnp8irNAr9wBN3HV-444" value="W" style="ellipse;whiteSpace=wrap;html=1;aspect=fixed;" vertex="1" parent="1">
          <mxGeometry x="-140" y="610" width="30" height="30" as="geometry" />
        </mxCell>
        <mxCell id="y4AhJnp8irNAr9wBN3HV-445" value="v" style="ellipse;whiteSpace=wrap;html=1;aspect=fixed;" vertex="1" parent="1">
          <mxGeometry x="-230" y="660" width="30" height="30" as="geometry" />
        </mxCell>
        <mxCell id="y4AhJnp8irNAr9wBN3HV-446" value="E" style="ellipse;whiteSpace=wrap;html=1;aspect=fixed;" vertex="1" parent="1">
          <mxGeometry x="-150" y="660" width="30" height="30" as="geometry" />
        </mxCell>
        <mxCell id="y4AhJnp8irNAr9wBN3HV-447" value="i" style="ellipse;whiteSpace=wrap;html=1;aspect=fixed;" vertex="1" parent="1">
          <mxGeometry x="-190" y="700" width="30" height="30" as="geometry" />
        </mxCell>
        <mxCell id="y4AhJnp8irNAr9wBN3HV-448" value="" style="endArrow=none;html=1;rounded=0;entryX=0.5;entryY=0;entryDx=0;entryDy=0;exitX=0.5;exitY=1;exitDx=0;exitDy=0;" edge="1" parent="1" source="y4AhJnp8irNAr9wBN3HV-446" target="y4AhJnp8irNAr9wBN3HV-447">
          <mxGeometry width="50" height="50" relative="1" as="geometry">
            <mxPoint x="-70" y="760" as="sourcePoint" />
            <mxPoint x="-20" y="710" as="targetPoint" />
          </mxGeometry>
        </mxCell>
        <mxCell id="y4AhJnp8irNAr9wBN3HV-449" value="" style="endArrow=none;html=1;rounded=0;entryX=0.5;entryY=1;entryDx=0;entryDy=0;exitX=0.5;exitY=0;exitDx=0;exitDy=0;" edge="1" parent="1" source="y4AhJnp8irNAr9wBN3HV-445" target="y4AhJnp8irNAr9wBN3HV-444">
          <mxGeometry width="50" height="50" relative="1" as="geometry">
            <mxPoint x="-70" y="760" as="sourcePoint" />
            <mxPoint x="-20" y="710" as="targetPoint" />
          </mxGeometry>
        </mxCell>
        <mxCell id="y4AhJnp8irNAr9wBN3HV-450" value="" style="endArrow=none;html=1;rounded=0;entryX=0.5;entryY=1;entryDx=0;entryDy=0;exitX=0.5;exitY=0;exitDx=0;exitDy=0;" edge="1" parent="1" source="y4AhJnp8irNAr9wBN3HV-446" target="y4AhJnp8irNAr9wBN3HV-444">
          <mxGeometry width="50" height="50" relative="1" as="geometry">
            <mxPoint x="-70" y="760" as="sourcePoint" />
            <mxPoint x="-20" y="710" as="targetPoint" />
          </mxGeometry>
        </mxCell>
        <mxCell id="y4AhJnp8irNAr9wBN3HV-451" value=")" style="ellipse;whiteSpace=wrap;html=1;aspect=fixed;" vertex="1" parent="1">
          <mxGeometry x="-100" y="610" width="30" height="30" as="geometry" />
        </mxCell>
        <mxCell id="y4AhJnp8irNAr9wBN3HV-452" value="" style="endArrow=none;html=1;rounded=0;entryX=0.5;entryY=1;entryDx=0;entryDy=0;exitX=0.5;exitY=0;exitDx=0;exitDy=0;" edge="1" parent="1" source="y4AhJnp8irNAr9wBN3HV-442" target="y4AhJnp8irNAr9wBN3HV-432">
          <mxGeometry width="50" height="50" relative="1" as="geometry">
            <mxPoint x="-220" y="580" as="sourcePoint" />
            <mxPoint x="-170" y="530" as="targetPoint" />
          </mxGeometry>
        </mxCell>
        <mxCell id="y4AhJnp8irNAr9wBN3HV-453" value="," style="ellipse;whiteSpace=wrap;html=1;aspect=fixed;" vertex="1" parent="1">
          <mxGeometry x="-190" y="660" width="30" height="30" as="geometry" />
        </mxCell>
        <mxCell id="y4AhJnp8irNAr9wBN3HV-454" value="" style="endArrow=none;html=1;rounded=0;entryX=0.5;entryY=0;entryDx=0;entryDy=0;exitX=0.5;exitY=1;exitDx=0;exitDy=0;" edge="1" parent="1" source="y4AhJnp8irNAr9wBN3HV-444" target="y4AhJnp8irNAr9wBN3HV-453">
          <mxGeometry width="50" height="50" relative="1" as="geometry">
            <mxPoint x="-220" y="840" as="sourcePoint" />
            <mxPoint x="-170" y="790" as="targetPoint" />
          </mxGeometry>
        </mxCell>
        <mxCell id="y4AhJnp8irNAr9wBN3HV-455" value="" style="endArrow=none;html=1;rounded=0;entryX=0.5;entryY=1;entryDx=0;entryDy=0;exitX=0.5;exitY=0;exitDx=0;exitDy=0;" edge="1" parent="1" source="y4AhJnp8irNAr9wBN3HV-443" target="y4AhJnp8irNAr9wBN3HV-432">
          <mxGeometry width="50" height="50" relative="1" as="geometry">
            <mxPoint x="-220" y="750" as="sourcePoint" />
            <mxPoint x="-170" y="700" as="targetPoint" />
          </mxGeometry>
        </mxCell>
        <mxCell id="y4AhJnp8irNAr9wBN3HV-456" value="" style="endArrow=none;html=1;rounded=0;entryX=0.5;entryY=1;entryDx=0;entryDy=0;exitX=0.5;exitY=0;exitDx=0;exitDy=0;" edge="1" parent="1" source="y4AhJnp8irNAr9wBN3HV-444" target="y4AhJnp8irNAr9wBN3HV-432">
          <mxGeometry width="50" height="50" relative="1" as="geometry">
            <mxPoint x="-220" y="750" as="sourcePoint" />
            <mxPoint x="-170" y="700" as="targetPoint" />
          </mxGeometry>
        </mxCell>
        <mxCell id="y4AhJnp8irNAr9wBN3HV-457" value="" style="endArrow=none;html=1;rounded=0;entryX=0.5;entryY=1;entryDx=0;entryDy=0;exitX=0.5;exitY=0;exitDx=0;exitDy=0;" edge="1" parent="1" source="y4AhJnp8irNAr9wBN3HV-451" target="y4AhJnp8irNAr9wBN3HV-432">
          <mxGeometry width="50" height="50" relative="1" as="geometry">
            <mxPoint x="-220" y="840" as="sourcePoint" />
            <mxPoint x="-170" y="790" as="targetPoint" />
          </mxGeometry>
        </mxCell>
        <mxCell id="y4AhJnp8irNAr9wBN3HV-476" value="N" style="ellipse;whiteSpace=wrap;html=1;aspect=fixed;" vertex="1" parent="1">
          <mxGeometry x="-80" y="560" width="30" height="30" as="geometry" />
        </mxCell>
        <mxCell id="y4AhJnp8irNAr9wBN3HV-477" value="p" style="ellipse;whiteSpace=wrap;html=1;aspect=fixed;" vertex="1" parent="1">
          <mxGeometry x="-40" y="610" width="30" height="30" as="geometry" />
        </mxCell>
        <mxCell id="y4AhJnp8irNAr9wBN3HV-478" value="i" style="ellipse;whiteSpace=wrap;html=1;aspect=fixed;" vertex="1" parent="1">
          <mxGeometry y="610" width="30" height="30" as="geometry" />
        </mxCell>
        <mxCell id="y4AhJnp8irNAr9wBN3HV-479" value=";" style="ellipse;whiteSpace=wrap;html=1;aspect=fixed;" vertex="1" parent="1">
          <mxGeometry x="40" y="610" width="30" height="30" as="geometry" />
        </mxCell>
        <mxCell id="y4AhJnp8irNAr9wBN3HV-480" value="N" style="ellipse;whiteSpace=wrap;html=1;aspect=fixed;" vertex="1" parent="1">
          <mxGeometry x="80" y="610" width="30" height="30" as="geometry" />
        </mxCell>
        <mxCell id="y4AhJnp8irNAr9wBN3HV-481" value="" style="endArrow=none;html=1;rounded=0;entryX=0.5;entryY=1;entryDx=0;entryDy=0;exitX=0.5;exitY=0;exitDx=0;exitDy=0;" edge="1" parent="1" source="y4AhJnp8irNAr9wBN3HV-477" target="y4AhJnp8irNAr9wBN3HV-476">
          <mxGeometry width="50" height="50" relative="1" as="geometry">
            <mxPoint x="330" y="810" as="sourcePoint" />
            <mxPoint x="380" y="760" as="targetPoint" />
          </mxGeometry>
        </mxCell>
        <mxCell id="y4AhJnp8irNAr9wBN3HV-482" value="" style="endArrow=none;html=1;rounded=0;entryX=0.5;entryY=1;entryDx=0;entryDy=0;exitX=0.5;exitY=0;exitDx=0;exitDy=0;" edge="1" parent="1" source="y4AhJnp8irNAr9wBN3HV-478" target="y4AhJnp8irNAr9wBN3HV-476">
          <mxGeometry width="50" height="50" relative="1" as="geometry">
            <mxPoint x="330" y="990" as="sourcePoint" />
            <mxPoint x="380" y="940" as="targetPoint" />
          </mxGeometry>
        </mxCell>
        <mxCell id="y4AhJnp8irNAr9wBN3HV-483" value="" style="endArrow=none;html=1;rounded=0;entryX=0.5;entryY=1;entryDx=0;entryDy=0;exitX=0.5;exitY=0;exitDx=0;exitDy=0;" edge="1" parent="1" source="y4AhJnp8irNAr9wBN3HV-479" target="y4AhJnp8irNAr9wBN3HV-476">
          <mxGeometry width="50" height="50" relative="1" as="geometry">
            <mxPoint x="330" y="990" as="sourcePoint" />
            <mxPoint x="380" y="940" as="targetPoint" />
          </mxGeometry>
        </mxCell>
        <mxCell id="y4AhJnp8irNAr9wBN3HV-484" value="" style="endArrow=none;html=1;rounded=0;entryX=0.5;entryY=1;entryDx=0;entryDy=0;exitX=0.5;exitY=0;exitDx=0;exitDy=0;" edge="1" parent="1" source="y4AhJnp8irNAr9wBN3HV-480" target="y4AhJnp8irNAr9wBN3HV-476">
          <mxGeometry width="50" height="50" relative="1" as="geometry">
            <mxPoint x="330" y="990" as="sourcePoint" />
            <mxPoint x="380" y="940" as="targetPoint" />
          </mxGeometry>
        </mxCell>
        <mxCell id="y4AhJnp8irNAr9wBN3HV-485" value="2" style="ellipse;whiteSpace=wrap;html=1;aspect=fixed;" vertex="1" parent="1">
          <mxGeometry x="80" y="610" width="30" height="30" as="geometry" />
        </mxCell>
        <mxCell id="y4AhJnp8irNAr9wBN3HV-501" value="2" style="ellipse;whiteSpace=wrap;html=1;aspect=fixed;" vertex="1" parent="1">
          <mxGeometry x="340" y="80" width="30" height="30" as="geometry" />
        </mxCell>
        <mxCell id="y4AhJnp8irNAr9wBN3HV-503" value="d" style="ellipse;whiteSpace=wrap;html=1;aspect=fixed;" vertex="1" parent="1">
          <mxGeometry x="340" y="160" width="30" height="30" as="geometry" />
        </mxCell>
        <mxCell id="y4AhJnp8irNAr9wBN3HV-504" value="t" style="ellipse;whiteSpace=wrap;html=1;aspect=fixed;" vertex="1" parent="1">
          <mxGeometry x="380" y="160" width="30" height="30" as="geometry" />
        </mxCell>
        <mxCell id="y4AhJnp8irNAr9wBN3HV-505" value="i" style="ellipse;whiteSpace=wrap;html=1;aspect=fixed;" vertex="1" parent="1">
          <mxGeometry x="420" y="160" width="30" height="30" as="geometry" />
        </mxCell>
        <mxCell id="y4AhJnp8irNAr9wBN3HV-506" value=";" style="ellipse;whiteSpace=wrap;html=1;aspect=fixed;" vertex="1" parent="1">
          <mxGeometry x="460" y="160" width="30" height="30" as="geometry" />
        </mxCell>
        <mxCell id="y4AhJnp8irNAr9wBN3HV-507" value="N" style="ellipse;whiteSpace=wrap;html=1;aspect=fixed;" vertex="1" parent="1">
          <mxGeometry x="500" y="160" width="30" height="30" as="geometry" />
        </mxCell>
        <mxCell id="y4AhJnp8irNAr9wBN3HV-508" value="" style="endArrow=none;html=1;rounded=0;entryX=0.5;entryY=1;entryDx=0;entryDy=0;exitX=0.5;exitY=0;exitDx=0;exitDy=0;" edge="1" parent="1" source="y4AhJnp8irNAr9wBN3HV-503" target="y4AhJnp8irNAr9wBN3HV-501">
          <mxGeometry width="50" height="50" relative="1" as="geometry">
            <mxPoint x="270" y="160" as="sourcePoint" />
            <mxPoint x="320" y="110" as="targetPoint" />
          </mxGeometry>
        </mxCell>
        <mxCell id="y4AhJnp8irNAr9wBN3HV-509" value="" style="endArrow=none;html=1;rounded=0;entryX=0.5;entryY=1;entryDx=0;entryDy=0;exitX=0.5;exitY=0;exitDx=0;exitDy=0;" edge="1" parent="1" source="y4AhJnp8irNAr9wBN3HV-504" target="y4AhJnp8irNAr9wBN3HV-501">
          <mxGeometry width="50" height="50" relative="1" as="geometry">
            <mxPoint x="270" y="160" as="sourcePoint" />
            <mxPoint x="320" y="110" as="targetPoint" />
          </mxGeometry>
        </mxCell>
        <mxCell id="y4AhJnp8irNAr9wBN3HV-510" value="" style="endArrow=none;html=1;rounded=0;entryX=0.5;entryY=1;entryDx=0;entryDy=0;exitX=0.5;exitY=0;exitDx=0;exitDy=0;" edge="1" parent="1" source="y4AhJnp8irNAr9wBN3HV-505" target="y4AhJnp8irNAr9wBN3HV-501">
          <mxGeometry width="50" height="50" relative="1" as="geometry">
            <mxPoint x="270" y="160" as="sourcePoint" />
            <mxPoint x="320" y="110" as="targetPoint" />
          </mxGeometry>
        </mxCell>
        <mxCell id="y4AhJnp8irNAr9wBN3HV-511" value="" style="endArrow=none;html=1;rounded=0;entryX=0.5;entryY=1;entryDx=0;entryDy=0;exitX=0.5;exitY=0;exitDx=0;exitDy=0;" edge="1" parent="1" source="y4AhJnp8irNAr9wBN3HV-506" target="y4AhJnp8irNAr9wBN3HV-501">
          <mxGeometry width="50" height="50" relative="1" as="geometry">
            <mxPoint x="270" y="160" as="sourcePoint" />
            <mxPoint x="320" y="110" as="targetPoint" />
          </mxGeometry>
        </mxCell>
        <mxCell id="y4AhJnp8irNAr9wBN3HV-512" value="" style="endArrow=none;html=1;rounded=0;exitX=0.5;exitY=0;exitDx=0;exitDy=0;entryX=0.5;entryY=1;entryDx=0;entryDy=0;" edge="1" parent="1" source="y4AhJnp8irNAr9wBN3HV-507" target="y4AhJnp8irNAr9wBN3HV-501">
          <mxGeometry width="50" height="50" relative="1" as="geometry">
            <mxPoint x="270" y="160" as="sourcePoint" />
            <mxPoint x="435" y="120" as="targetPoint" />
          </mxGeometry>
        </mxCell>
        <mxCell id="y4AhJnp8irNAr9wBN3HV-519" value="N" style="ellipse;whiteSpace=wrap;html=1;aspect=fixed;" vertex="1" parent="1">
          <mxGeometry x="500" y="160" width="30" height="30" as="geometry" />
        </mxCell>
        <mxCell id="y4AhJnp8irNAr9wBN3HV-520" value="i" style="ellipse;whiteSpace=wrap;html=1;aspect=fixed;" vertex="1" parent="1">
          <mxGeometry x="390" y="210" width="30" height="30" as="geometry" />
        </mxCell>
        <mxCell id="y4AhJnp8irNAr9wBN3HV-521" value="v" style="ellipse;whiteSpace=wrap;html=1;aspect=fixed;" vertex="1" parent="1">
          <mxGeometry x="430" y="210" width="30" height="30" as="geometry" />
        </mxCell>
        <mxCell id="y4AhJnp8irNAr9wBN3HV-522" value="E" style="ellipse;whiteSpace=wrap;html=1;aspect=fixed;" vertex="1" parent="1">
          <mxGeometry x="470" y="210" width="30" height="30" as="geometry" />
        </mxCell>
        <mxCell id="y4AhJnp8irNAr9wBN3HV-523" value="" style="endArrow=none;html=1;rounded=0;entryX=0.5;entryY=1;entryDx=0;entryDy=0;exitX=0.5;exitY=0;exitDx=0;exitDy=0;" edge="1" parent="1" source="y4AhJnp8irNAr9wBN3HV-520" target="y4AhJnp8irNAr9wBN3HV-519">
          <mxGeometry width="50" height="50" relative="1" as="geometry">
            <mxPoint x="510" y="310" as="sourcePoint" />
            <mxPoint x="560" y="260" as="targetPoint" />
          </mxGeometry>
        </mxCell>
        <mxCell id="y4AhJnp8irNAr9wBN3HV-524" value="" style="endArrow=none;html=1;rounded=0;entryX=0.5;entryY=1;entryDx=0;entryDy=0;exitX=0.5;exitY=0;exitDx=0;exitDy=0;" edge="1" parent="1" source="y4AhJnp8irNAr9wBN3HV-521" target="y4AhJnp8irNAr9wBN3HV-519">
          <mxGeometry width="50" height="50" relative="1" as="geometry">
            <mxPoint x="430" y="310" as="sourcePoint" />
            <mxPoint x="480" y="260" as="targetPoint" />
          </mxGeometry>
        </mxCell>
        <mxCell id="y4AhJnp8irNAr9wBN3HV-525" value="" style="endArrow=none;html=1;rounded=0;entryX=0.5;entryY=1;entryDx=0;entryDy=0;exitX=0.5;exitY=0;exitDx=0;exitDy=0;" edge="1" parent="1" source="y4AhJnp8irNAr9wBN3HV-522" target="y4AhJnp8irNAr9wBN3HV-519">
          <mxGeometry width="50" height="50" relative="1" as="geometry">
            <mxPoint x="430" y="310" as="sourcePoint" />
            <mxPoint x="480" y="260" as="targetPoint" />
          </mxGeometry>
        </mxCell>
        <mxCell id="y4AhJnp8irNAr9wBN3HV-526" value="E" style="ellipse;whiteSpace=wrap;html=1;aspect=fixed;" vertex="1" parent="1">
          <mxGeometry x="470" y="210" width="30" height="30" as="geometry" />
        </mxCell>
        <mxCell id="y4AhJnp8irNAr9wBN3HV-529" value=";" style="ellipse;whiteSpace=wrap;html=1;aspect=fixed;" vertex="1" parent="1">
          <mxGeometry x="510" y="210" width="30" height="30" as="geometry" />
        </mxCell>
        <mxCell id="y4AhJnp8irNAr9wBN3HV-530" value="N" style="ellipse;whiteSpace=wrap;html=1;aspect=fixed;" vertex="1" parent="1">
          <mxGeometry x="550" y="210" width="30" height="30" as="geometry" />
        </mxCell>
        <mxCell id="y4AhJnp8irNAr9wBN3HV-531" value="" style="endArrow=none;html=1;rounded=0;entryX=0.5;entryY=0;entryDx=0;entryDy=0;exitX=0.5;exitY=1;exitDx=0;exitDy=0;" edge="1" parent="1" source="y4AhJnp8irNAr9wBN3HV-519" target="y4AhJnp8irNAr9wBN3HV-529">
          <mxGeometry width="50" height="50" relative="1" as="geometry">
            <mxPoint x="370" y="280" as="sourcePoint" />
            <mxPoint x="420" y="230" as="targetPoint" />
          </mxGeometry>
        </mxCell>
        <mxCell id="y4AhJnp8irNAr9wBN3HV-532" value="" style="endArrow=none;html=1;rounded=0;entryX=0.5;entryY=0;entryDx=0;entryDy=0;exitX=0.5;exitY=1;exitDx=0;exitDy=0;" edge="1" parent="1" source="y4AhJnp8irNAr9wBN3HV-519" target="y4AhJnp8irNAr9wBN3HV-530">
          <mxGeometry width="50" height="50" relative="1" as="geometry">
            <mxPoint x="370" y="280" as="sourcePoint" />
            <mxPoint x="420" y="230" as="targetPoint" />
          </mxGeometry>
        </mxCell>
        <mxCell id="y4AhJnp8irNAr9wBN3HV-534" value="E" style="ellipse;whiteSpace=wrap;html=1;aspect=fixed;" vertex="1" parent="1">
          <mxGeometry x="470" y="210" width="30" height="30" as="geometry" />
        </mxCell>
        <mxCell id="y4AhJnp8irNAr9wBN3HV-536" value="(" style="ellipse;whiteSpace=wrap;html=1;aspect=fixed;" vertex="1" parent="1">
          <mxGeometry x="450" y="280" width="30" height="30" as="geometry" />
        </mxCell>
        <mxCell id="y4AhJnp8irNAr9wBN3HV-537" value="E" style="ellipse;whiteSpace=wrap;html=1;aspect=fixed;" vertex="1" parent="1">
          <mxGeometry x="490" y="280" width="30" height="30" as="geometry" />
        </mxCell>
        <mxCell id="y4AhJnp8irNAr9wBN3HV-538" value=")" style="ellipse;whiteSpace=wrap;html=1;aspect=fixed;" vertex="1" parent="1">
          <mxGeometry x="530" y="280" width="30" height="30" as="geometry" />
        </mxCell>
        <mxCell id="y4AhJnp8irNAr9wBN3HV-539" value="M" style="ellipse;whiteSpace=wrap;html=1;aspect=fixed;" vertex="1" parent="1">
          <mxGeometry x="570" y="280" width="30" height="30" as="geometry" />
        </mxCell>
        <mxCell id="y4AhJnp8irNAr9wBN3HV-540" value="" style="endArrow=none;html=1;rounded=0;entryX=0.5;entryY=1;entryDx=0;entryDy=0;exitX=0.5;exitY=0;exitDx=0;exitDy=0;" edge="1" parent="1" source="y4AhJnp8irNAr9wBN3HV-536" target="y4AhJnp8irNAr9wBN3HV-534">
          <mxGeometry width="50" height="50" relative="1" as="geometry">
            <mxPoint x="320" y="280" as="sourcePoint" />
            <mxPoint x="370" y="230" as="targetPoint" />
          </mxGeometry>
        </mxCell>
        <mxCell id="y4AhJnp8irNAr9wBN3HV-541" value="" style="endArrow=none;html=1;rounded=0;entryX=0.5;entryY=1;entryDx=0;entryDy=0;exitX=0.5;exitY=0;exitDx=0;exitDy=0;" edge="1" parent="1" source="y4AhJnp8irNAr9wBN3HV-537" target="y4AhJnp8irNAr9wBN3HV-534">
          <mxGeometry width="50" height="50" relative="1" as="geometry">
            <mxPoint x="320" y="280" as="sourcePoint" />
            <mxPoint x="370" y="230" as="targetPoint" />
          </mxGeometry>
        </mxCell>
        <mxCell id="y4AhJnp8irNAr9wBN3HV-542" value="" style="endArrow=none;html=1;rounded=0;entryX=0.5;entryY=1;entryDx=0;entryDy=0;exitX=0.5;exitY=0;exitDx=0;exitDy=0;" edge="1" parent="1" source="y4AhJnp8irNAr9wBN3HV-538" target="y4AhJnp8irNAr9wBN3HV-534">
          <mxGeometry width="50" height="50" relative="1" as="geometry">
            <mxPoint x="320" y="280" as="sourcePoint" />
            <mxPoint x="370" y="230" as="targetPoint" />
          </mxGeometry>
        </mxCell>
        <mxCell id="y4AhJnp8irNAr9wBN3HV-543" value="" style="endArrow=none;html=1;rounded=0;entryX=0.5;entryY=1;entryDx=0;entryDy=0;exitX=0.5;exitY=0;exitDx=0;exitDy=0;" edge="1" parent="1" source="y4AhJnp8irNAr9wBN3HV-539" target="y4AhJnp8irNAr9wBN3HV-534">
          <mxGeometry width="50" height="50" relative="1" as="geometry">
            <mxPoint x="320" y="280" as="sourcePoint" />
            <mxPoint x="370" y="230" as="targetPoint" />
          </mxGeometry>
        </mxCell>
        <mxCell id="y4AhJnp8irNAr9wBN3HV-546" value="E" style="ellipse;whiteSpace=wrap;html=1;aspect=fixed;" vertex="1" parent="1">
          <mxGeometry x="490" y="280" width="30" height="30" as="geometry" />
        </mxCell>
        <mxCell id="y4AhJnp8irNAr9wBN3HV-548" value="i" style="ellipse;whiteSpace=wrap;html=1;aspect=fixed;" vertex="1" parent="1">
          <mxGeometry x="450" y="330" width="30" height="30" as="geometry" />
        </mxCell>
        <mxCell id="y4AhJnp8irNAr9wBN3HV-549" value="M" style="ellipse;whiteSpace=wrap;html=1;aspect=fixed;" vertex="1" parent="1">
          <mxGeometry x="490" y="330" width="30" height="30" as="geometry" />
        </mxCell>
        <mxCell id="y4AhJnp8irNAr9wBN3HV-550" value="v" style="ellipse;whiteSpace=wrap;html=1;aspect=fixed;" vertex="1" parent="1">
          <mxGeometry x="430" y="380" width="30" height="30" as="geometry" />
        </mxCell>
        <mxCell id="y4AhJnp8irNAr9wBN3HV-551" value="E" style="ellipse;whiteSpace=wrap;html=1;aspect=fixed;" vertex="1" parent="1">
          <mxGeometry x="470" y="380" width="30" height="30" as="geometry" />
        </mxCell>
        <mxCell id="y4AhJnp8irNAr9wBN3HV-552" value="i" style="ellipse;whiteSpace=wrap;html=1;aspect=fixed;" vertex="1" parent="1">
          <mxGeometry x="440" y="420" width="30" height="30" as="geometry" />
        </mxCell>
        <mxCell id="y4AhJnp8irNAr9wBN3HV-553" value="" style="endArrow=none;html=1;rounded=0;entryX=0.5;entryY=0;entryDx=0;entryDy=0;exitX=0.5;exitY=1;exitDx=0;exitDy=0;" edge="1" parent="1" source="y4AhJnp8irNAr9wBN3HV-551" target="y4AhJnp8irNAr9wBN3HV-552">
          <mxGeometry width="50" height="50" relative="1" as="geometry">
            <mxPoint x="560" y="480" as="sourcePoint" />
            <mxPoint x="610" y="430" as="targetPoint" />
          </mxGeometry>
        </mxCell>
        <mxCell id="y4AhJnp8irNAr9wBN3HV-554" value="" style="endArrow=none;html=1;rounded=0;entryX=0.5;entryY=1;entryDx=0;entryDy=0;exitX=0.5;exitY=0;exitDx=0;exitDy=0;" edge="1" parent="1" source="y4AhJnp8irNAr9wBN3HV-550" target="y4AhJnp8irNAr9wBN3HV-549">
          <mxGeometry width="50" height="50" relative="1" as="geometry">
            <mxPoint x="560" y="480" as="sourcePoint" />
            <mxPoint x="610" y="430" as="targetPoint" />
          </mxGeometry>
        </mxCell>
        <mxCell id="y4AhJnp8irNAr9wBN3HV-555" value="" style="endArrow=none;html=1;rounded=0;entryX=0.5;entryY=1;entryDx=0;entryDy=0;exitX=0.5;exitY=0;exitDx=0;exitDy=0;" edge="1" parent="1" source="y4AhJnp8irNAr9wBN3HV-551" target="y4AhJnp8irNAr9wBN3HV-549">
          <mxGeometry width="50" height="50" relative="1" as="geometry">
            <mxPoint x="560" y="480" as="sourcePoint" />
            <mxPoint x="610" y="430" as="targetPoint" />
          </mxGeometry>
        </mxCell>
        <mxCell id="y4AhJnp8irNAr9wBN3HV-556" value="" style="endArrow=none;html=1;rounded=0;entryX=0.5;entryY=1;entryDx=0;entryDy=0;exitX=0.5;exitY=0;exitDx=0;exitDy=0;" edge="1" parent="1" source="y4AhJnp8irNAr9wBN3HV-549" target="y4AhJnp8irNAr9wBN3HV-546">
          <mxGeometry width="50" height="50" relative="1" as="geometry">
            <mxPoint x="560" y="480" as="sourcePoint" />
            <mxPoint x="610" y="430" as="targetPoint" />
          </mxGeometry>
        </mxCell>
        <mxCell id="y4AhJnp8irNAr9wBN3HV-557" value="" style="endArrow=none;html=1;rounded=0;entryX=0.5;entryY=1;entryDx=0;entryDy=0;exitX=0.5;exitY=0;exitDx=0;exitDy=0;" edge="1" parent="1" source="y4AhJnp8irNAr9wBN3HV-548" target="y4AhJnp8irNAr9wBN3HV-546">
          <mxGeometry width="50" height="50" relative="1" as="geometry">
            <mxPoint x="560" y="480" as="sourcePoint" />
            <mxPoint x="610" y="430" as="targetPoint" />
          </mxGeometry>
        </mxCell>
        <mxCell id="y4AhJnp8irNAr9wBN3HV-560" value="M" style="ellipse;whiteSpace=wrap;html=1;aspect=fixed;" vertex="1" parent="1">
          <mxGeometry x="570" y="280" width="30" height="30" as="geometry" />
        </mxCell>
        <mxCell id="y4AhJnp8irNAr9wBN3HV-561" value="v" style="ellipse;whiteSpace=wrap;html=1;aspect=fixed;" vertex="1" parent="1">
          <mxGeometry x="530" y="330" width="30" height="30" as="geometry" />
        </mxCell>
        <mxCell id="y4AhJnp8irNAr9wBN3HV-562" value="E" style="ellipse;whiteSpace=wrap;html=1;aspect=fixed;" vertex="1" parent="1">
          <mxGeometry x="570" y="330" width="30" height="30" as="geometry" />
        </mxCell>
        <mxCell id="y4AhJnp8irNAr9wBN3HV-564" value="" style="endArrow=none;html=1;rounded=0;entryX=0.5;entryY=1;entryDx=0;entryDy=0;exitX=0.5;exitY=0;exitDx=0;exitDy=0;" edge="1" parent="1" source="y4AhJnp8irNAr9wBN3HV-561" target="y4AhJnp8irNAr9wBN3HV-560">
          <mxGeometry width="50" height="50" relative="1" as="geometry">
            <mxPoint x="640" y="430" as="sourcePoint" />
            <mxPoint x="690" y="380" as="targetPoint" />
          </mxGeometry>
        </mxCell>
        <mxCell id="y4AhJnp8irNAr9wBN3HV-565" value="" style="endArrow=none;html=1;rounded=0;entryX=0.5;entryY=1;entryDx=0;entryDy=0;exitX=0.5;exitY=0;exitDx=0;exitDy=0;" edge="1" parent="1" source="y4AhJnp8irNAr9wBN3HV-562" target="y4AhJnp8irNAr9wBN3HV-560">
          <mxGeometry width="50" height="50" relative="1" as="geometry">
            <mxPoint x="640" y="430" as="sourcePoint" />
            <mxPoint x="690" y="380" as="targetPoint" />
          </mxGeometry>
        </mxCell>
        <mxCell id="y4AhJnp8irNAr9wBN3HV-566" value="E" style="ellipse;whiteSpace=wrap;html=1;aspect=fixed;" vertex="1" parent="1">
          <mxGeometry x="570" y="330" width="30" height="30" as="geometry" />
        </mxCell>
        <mxCell id="y4AhJnp8irNAr9wBN3HV-567" value="i" style="ellipse;whiteSpace=wrap;html=1;aspect=fixed;" vertex="1" parent="1">
          <mxGeometry x="540" y="370" width="30" height="30" as="geometry" />
        </mxCell>
        <mxCell id="y4AhJnp8irNAr9wBN3HV-568" value="" style="endArrow=none;html=1;rounded=0;entryX=0.5;entryY=0;entryDx=0;entryDy=0;exitX=0.5;exitY=1;exitDx=0;exitDy=0;" edge="1" parent="1" source="y4AhJnp8irNAr9wBN3HV-566" target="y4AhJnp8irNAr9wBN3HV-567">
          <mxGeometry width="50" height="50" relative="1" as="geometry">
            <mxPoint x="660" y="430" as="sourcePoint" />
            <mxPoint x="710" y="380" as="targetPoint" />
          </mxGeometry>
        </mxCell>
        <mxCell id="y4AhJnp8irNAr9wBN3HV-573" value="N" style="ellipse;whiteSpace=wrap;html=1;aspect=fixed;" vertex="1" parent="1">
          <mxGeometry x="550" y="210" width="30" height="30" as="geometry" />
        </mxCell>
        <mxCell id="y4AhJnp8irNAr9wBN3HV-574" value="p" style="ellipse;whiteSpace=wrap;html=1;aspect=fixed;" vertex="1" parent="1">
          <mxGeometry x="630" y="280" width="30" height="30" as="geometry" />
        </mxCell>
        <mxCell id="y4AhJnp8irNAr9wBN3HV-575" value="i" style="ellipse;whiteSpace=wrap;html=1;aspect=fixed;" vertex="1" parent="1">
          <mxGeometry x="670" y="280" width="30" height="30" as="geometry" />
        </mxCell>
        <mxCell id="y4AhJnp8irNAr9wBN3HV-576" value=";" style="ellipse;whiteSpace=wrap;html=1;aspect=fixed;" vertex="1" parent="1">
          <mxGeometry x="710" y="280" width="30" height="30" as="geometry" />
        </mxCell>
        <mxCell id="y4AhJnp8irNAr9wBN3HV-578" value="" style="endArrow=none;html=1;rounded=0;entryX=0.5;entryY=1;entryDx=0;entryDy=0;exitX=0.5;exitY=0;exitDx=0;exitDy=0;" edge="1" parent="1" source="y4AhJnp8irNAr9wBN3HV-574" target="y4AhJnp8irNAr9wBN3HV-573">
          <mxGeometry width="50" height="50" relative="1" as="geometry">
            <mxPoint x="1000" y="410" as="sourcePoint" />
            <mxPoint x="1050" y="360" as="targetPoint" />
          </mxGeometry>
        </mxCell>
        <mxCell id="y4AhJnp8irNAr9wBN3HV-579" value="" style="endArrow=none;html=1;rounded=0;entryX=0.5;entryY=1;entryDx=0;entryDy=0;exitX=0.5;exitY=0;exitDx=0;exitDy=0;" edge="1" parent="1" source="y4AhJnp8irNAr9wBN3HV-575" target="y4AhJnp8irNAr9wBN3HV-573">
          <mxGeometry width="50" height="50" relative="1" as="geometry">
            <mxPoint x="1000" y="590" as="sourcePoint" />
            <mxPoint x="1050" y="540" as="targetPoint" />
          </mxGeometry>
        </mxCell>
        <mxCell id="y4AhJnp8irNAr9wBN3HV-580" value="" style="endArrow=none;html=1;rounded=0;entryX=0.5;entryY=1;entryDx=0;entryDy=0;exitX=0.5;exitY=0;exitDx=0;exitDy=0;" edge="1" parent="1" source="y4AhJnp8irNAr9wBN3HV-576" target="y4AhJnp8irNAr9wBN3HV-573">
          <mxGeometry width="50" height="50" relative="1" as="geometry">
            <mxPoint x="1000" y="590" as="sourcePoint" />
            <mxPoint x="1050" y="540" as="targetPoint" />
          </mxGeometry>
        </mxCell>
      </root>
    </mxGraphModel>
  </diagram>
</mxfile>
